<svg width="490" height="182" viewBox="0 0 490 182" fill="none" xmlns="http://www.w3.org/2000/svg">
<path d="M1.5 147.961V149.461H3H84.6396V174.377V175.877H86.1396H130.547H132.047V174.377V149.461H150.247H151.747V147.961V112.298V110.798H150.247H132.047V5.31145V3.81145H130.547H106.004H104.504H87.1413H85.6413H71.7821H70.9632L70.5204 4.50027L1.73826 111.487L1.5 111.858V112.298V147.961ZM50.6368 110.798L85.6413 55.9087V110.798H50.6368ZM244.17 180.5H244.176C259.933 180.5 273.601 176.951 285.118 169.79L285.12 169.789C296.689 162.575 305.584 152.185 311.816 138.683C318.049 125.177 321.135 108.993 321.136 90.179C321.192 71.4723 318.134 55.4722 311.894 42.2329C305.658 29.0011 296.756 18.8856 285.181 11.9497C273.613 4.96269 259.924 1.5 244.176 1.5C228.427 1.5 214.739 4.93511 203.17 11.8672L203.168 11.8689C191.649 18.8053 182.776 28.9206 176.541 42.1504L176.539 42.1552C170.358 55.3902 167.272 71.4128 167.216 90.17C167.16 108.878 170.218 125.01 176.452 138.518C182.684 152.02 191.579 162.41 203.148 169.624C214.718 176.839 228.413 180.444 244.17 180.5ZM262.602 128.511L262.601 128.513C257.687 136.436 251.554 140.187 244.176 140.187C239.211 140.187 234.801 138.512 230.89 135.11C227.054 131.725 223.942 126.396 221.652 118.957C219.376 111.503 218.241 101.927 218.296 90.1821C218.407 72.873 220.993 60.5081 225.828 52.8354C230.677 45.1421 236.78 41.4831 244.176 41.4831C249.148 41.4831 253.531 43.1357 257.382 46.4814L257.391 46.4889C261.224 49.7672 264.332 54.9313 266.619 62.1474C268.893 69.3216 270.055 78.647 270.055 90.1745L270.055 90.1792C270.11 107.871 267.55 120.566 262.602 128.511ZM338.253 147.961V149.461H339.753H421.392V174.377V175.877H422.892H467.3H468.8V174.377V149.461H487H488.5V147.961V112.298V110.798H487H468.8V5.31145V3.81145H467.3H442.757H441.257H423.894H422.394H408.535H407.716L407.273 4.50027L338.491 111.487L338.253 111.858V112.298V147.961ZM422.394 110.798H387.39L422.394 55.9086V110.798Z" stroke="url(#paint0_linear_32_4668)" stroke-width="3"/>
<defs>
<linearGradient id="paint0_linear_32_4668" x1="3" y1="91" x2="487" y2="91" gradientUnits="userSpaceOnUse">
<stop stop-color="#1A6670"/>
<stop offset="0.53" stop-color="#189288"/>
<stop offset="1" stop-color="#32A299"/>
</linearGradient>
</defs>
</svg>
