<svg width="60" height="39" viewBox="0 0 60 39" fill="none" xmlns="http://www.w3.org/2000/svg">
<path d="M3.9919 19.3791C3.9919 19.9314 4.43962 20.3791 4.9919 20.3791C5.54419 20.3791 5.9919 19.9314 5.9919 19.3791H3.9919ZM4.9919 1V0C4.43962 0 3.9919 0.447715 3.9919 1L4.9919 1ZM43.2672 1H44.2672C44.2672 0.447715 43.8195 0 43.2672 0V1ZM42.2672 19.3791C42.2672 19.9314 42.7149 20.3791 43.2672 20.3791C43.8195 20.3791 44.2672 19.9314 44.2672 19.3791H42.2672ZM56.417 17.6863L57.1344 16.9896C56.9461 16.7957 56.6873 16.6863 56.417 16.6863V17.6863ZM59 20.3464H60C60 20.0863 59.8986 19.8364 59.7174 19.6498L59 20.3464ZM59 32.1961V33.1961C59.5523 33.1961 60 32.7484 60 32.1961H59ZM4.9919 32.1961H3.9919C3.9919 32.7484 4.43962 33.1961 4.9919 33.1961V32.1961ZM4.9919 27.6013H5.9919V26.6013H4.9919V27.6013ZM1 26.6013C0.447715 26.6013 0 27.049 0 27.6013C0 28.1536 0.447715 28.6013 1 28.6013V26.6013ZM10.1579 28.6013C10.7102 28.6013 11.1579 28.1536 11.1579 27.6013C11.1579 27.049 10.7102 26.6013 10.1579 26.6013V28.6013ZM51.9555 5.17157L52.4771 4.31843C52.3201 4.22239 52.1396 4.17157 51.9555 4.17157V5.17157ZM53.834 6.32026H54.834C54.834 5.97199 54.6528 5.64881 54.3557 5.46712L53.834 6.32026ZM53.834 9.34314V10.3431C54.3863 10.3431 54.834 9.89542 54.834 9.34314H53.834ZM32.7134 10.8862C33.0981 10.4899 33.0888 9.85685 32.6926 9.47211C32.2964 9.08737 31.6633 9.09669 31.2785 9.49292L32.7134 10.8862ZM23.3077 19.1373L22.5903 19.8339L23.3077 20.5727L24.0251 19.8339L23.3077 19.1373ZM19.094 13.3622C18.7092 12.966 18.0761 12.9567 17.6799 13.3414C17.2837 13.7261 17.2743 14.3592 17.6591 14.7555L19.094 13.3622ZM14.8543 24.4902C15.4065 24.4902 15.8543 24.0425 15.8543 23.4902C15.8543 22.9379 15.4065 22.4902 14.8543 22.4902V24.4902ZM2.87854 22.4902C2.32626 22.4902 1.87854 22.9379 1.87854 23.4902C1.87854 24.0425 2.32626 24.4902 2.87854 24.4902V22.4902ZM44.2672 23.4902C44.2672 22.9379 43.8195 22.4902 43.2672 22.4902C42.7149 22.4902 42.2672 22.9379 42.2672 23.4902H44.2672ZM39.2753 28.6013C39.8276 28.6013 40.2753 28.1536 40.2753 27.6013C40.2753 27.049 39.8276 26.6013 39.2753 26.6013V28.6013ZM24.7166 26.6013C24.1643 26.6013 23.7166 27.049 23.7166 27.6013C23.7166 28.1536 24.1643 28.6013 24.7166 28.6013V26.6013ZM55.0081 21.5556V20.5556C54.4558 20.5556 54.0081 21.0033 54.0081 21.5556H55.0081ZM55.0081 24.2157H54.0081C54.0081 24.4758 54.1095 24.7257 54.2907 24.9123L55.0081 24.2157ZM56.417 25.6667L55.6996 26.3633C55.8879 26.5572 56.1467 26.6667 56.417 26.6667V25.6667ZM5.9919 19.3791V1H3.9919V19.3791H5.9919ZM4.9919 2H43.2672V0H4.9919V2ZM42.2672 17.6863V19.3791H44.2672V17.6863H42.2672ZM55.6996 18.3829L58.2826 21.043L59.7174 19.6498L57.1344 16.9896L55.6996 18.3829ZM59 31.1961H56.417V33.1961H59V31.1961ZM11.0972 31.1961H4.9919V33.1961H11.0972V31.1961ZM5.9919 32.1961V27.6013H3.9919V32.1961H5.9919ZM4.9919 26.6013H1V28.6013H4.9919V26.6013ZM1 28.6013H10.1579V26.6013H1V28.6013ZM42.2672 9.34314V17.6863H44.2672V9.34314H42.2672ZM43.2672 10.3431H53.3644V8.34314H43.2672V10.3431ZM43.2672 18.6863H55.0081V16.6863H43.2672V18.6863ZM55.0081 18.6863H56.417V16.6863H55.0081V18.6863ZM52.3832 9.53644L54.027 17.8796L55.9892 17.493L54.3455 9.14984L52.3832 9.53644ZM42.2672 1V5.17157H44.2672V1H42.2672ZM42.2672 5.17157V9.34314H44.2672V5.17157H42.2672ZM43.2672 6.17157H51.9555V4.17157H43.2672V6.17157ZM51.4338 6.02471L53.3123 7.1734L54.3557 5.46712L52.4771 4.31843L51.4338 6.02471ZM52.834 6.32026V9.34314H54.834V6.32026H52.834ZM53.834 8.34314H53.3644V10.3431H53.834V8.34314ZM31.2785 9.49292L22.5903 18.4406L24.0251 19.8339L32.7134 10.8862L31.2785 9.49292ZM24.0251 18.4406L19.094 13.3622L17.6591 14.7555L22.5903 19.8339L24.0251 18.4406ZM14.8543 22.4902H2.87854V24.4902H14.8543V22.4902ZM45.1457 31.1961H43.2672V33.1961H45.1457V31.1961ZM43.2672 31.1961H22.3684V33.1961H43.2672V31.1961ZM44.2672 32.1961V23.4902H42.2672V32.1961H44.2672ZM39.2753 26.6013C39.2642 26.6013 39.2531 26.6013 39.242 26.6013C39.2308 26.6013 39.2197 26.6013 39.2085 26.6013C39.1974 26.6013 39.1862 26.6013 39.175 26.6013C39.1639 26.6013 39.1527 26.6013 39.1415 26.6013C39.1303 26.6013 39.1191 26.6013 39.1078 26.6013C39.0966 26.6013 39.0854 26.6013 39.0741 26.6013C39.0629 26.6013 39.0516 26.6013 39.0404 26.6013C39.0291 26.6013 39.0178 26.6013 39.0065 26.6013C38.9952 26.6013 38.9839 26.6013 38.9726 26.6013C38.9613 26.6013 38.9499 26.6013 38.9386 26.6013C38.9273 26.6013 38.9159 26.6013 38.9046 26.6013C38.8932 26.6013 38.8818 26.6013 38.8704 26.6013C38.8591 26.6013 38.8477 26.6013 38.8363 26.6013C38.8249 26.6013 38.8134 26.6013 38.802 26.6013C38.7906 26.6013 38.7791 26.6013 38.7677 26.6013C38.7562 26.6013 38.7448 26.6013 38.7333 26.6013C38.7218 26.6013 38.7104 26.6013 38.6989 26.6013C38.6874 26.6013 38.6759 26.6013 38.6644 26.6013C38.6528 26.6013 38.6413 26.6013 38.6298 26.6013C38.6183 26.6013 38.6067 26.6013 38.5952 26.6013C38.5836 26.6013 38.572 26.6013 38.5605 26.6013C38.5489 26.6013 38.5373 26.6013 38.5257 26.6013C38.5141 26.6013 38.5025 26.6013 38.4909 26.6013C38.4793 26.6013 38.4676 26.6013 38.456 26.6013C38.4444 26.6013 38.4327 26.6013 38.4211 26.6013C38.4094 26.6013 38.3977 26.6013 38.3861 26.6013C38.3744 26.6013 38.3627 26.6013 38.351 26.6013C38.3393 26.6013 38.3276 26.6013 38.3159 26.6013C38.3042 26.6013 38.2925 26.6013 38.2807 26.6013C38.269 26.6013 38.2572 26.6013 38.2455 26.6013C38.2337 26.6013 38.222 26.6013 38.2102 26.6013C38.1984 26.6013 38.1866 26.6013 38.1749 26.6013C38.1631 26.6013 38.1513 26.6013 38.1395 26.6013C38.1276 26.6013 38.1158 26.6013 38.104 26.6013C38.0922 26.6013 38.0803 26.6013 38.0685 26.6013C38.0566 26.6013 38.0448 26.6013 38.0329 26.6013C38.0211 26.6013 38.0092 26.6013 37.9973 26.6013C37.9854 26.6013 37.9735 26.6013 37.9616 26.6013C37.9497 26.6013 37.9378 26.6013 37.9259 26.6013C37.914 26.6013 37.9021 26.6013 37.8901 26.6013C37.8782 26.6013 37.8663 26.6013 37.8543 26.6013C37.8424 26.6013 37.8304 26.6013 37.8184 26.6013C37.8065 26.6013 37.7945 26.6013 37.7825 26.6013C37.7705 26.6013 37.7585 26.6013 37.7465 26.6013C37.7345 26.6013 37.7225 26.6013 37.7105 26.6013C37.6985 26.6013 37.6865 26.6013 37.6744 26.6013C37.6624 26.6013 37.6504 26.6013 37.6383 26.6013C37.6263 26.6013 37.6142 26.6013 37.6021 26.6013C37.5901 26.6013 37.578 26.6013 37.5659 26.6013C37.5538 26.6013 37.5417 26.6013 37.5297 26.6013C37.5176 26.6013 37.5055 26.6013 37.4933 26.6013C37.4812 26.6013 37.4691 26.6013 37.457 26.6013C37.4449 26.6013 37.4327 26.6013 37.4206 26.6013C37.4084 26.6013 37.3963 26.6013 37.3841 26.6013C37.372 26.6013 37.3598 26.6013 37.3477 26.6013C37.3355 26.6013 37.3233 26.6013 37.3111 26.6013C37.2989 26.6013 37.2867 26.6013 37.2745 26.6013C37.2623 26.6013 37.2501 26.6013 37.2379 26.6013C37.2257 26.6013 37.2135 26.6013 37.2013 26.6013C37.189 26.6013 37.1768 26.6013 37.1646 26.6013C37.1523 26.6013 37.1401 26.6013 37.1278 26.6013C37.1156 26.6013 37.1033 26.6013 37.091 26.6013C37.0788 26.6013 37.0665 26.6013 37.0542 26.6013C37.0419 26.6013 37.0297 26.6013 37.0174 26.6013C37.0051 26.6013 36.9928 26.6013 36.9805 26.6013C36.9682 26.6013 36.9558 26.6013 36.9435 26.6013C36.9312 26.6013 36.9189 26.6013 36.9066 26.6013C36.8942 26.6013 36.8819 26.6013 36.8695 26.6013C36.8572 26.6013 36.8449 26.6013 36.8325 26.6013C36.8201 26.6013 36.8078 26.6013 36.7954 26.6013C36.7831 26.6013 36.7707 26.6013 36.7583 26.6013C36.7459 26.6013 36.7335 26.6013 36.7211 26.6013C36.7088 26.6013 36.6964 26.6013 36.684 26.6013C36.6716 26.6013 36.6592 26.6013 36.6467 26.6013C36.6343 26.6013 36.6219 26.6013 36.6095 26.6013C36.5971 26.6013 36.5846 26.6013 36.5722 26.6013C36.5598 26.6013 36.5473 26.6013 36.5349 26.6013C36.5224 26.6013 36.51 26.6013 36.4975 26.6013C36.4851 26.6013 36.4726 26.6013 36.4602 26.6013C36.4477 26.6013 36.4352 26.6013 36.4227 26.6013C36.4103 26.6013 36.3978 26.6013 36.3853 26.6013C36.3728 26.6013 36.3603 26.6013 36.3478 26.6013C36.3353 26.6013 36.3228 26.6013 36.3103 26.6013C36.2978 26.6013 36.2853 26.6013 36.2728 26.6013C36.2603 26.6013 36.2478 26.6013 36.2353 26.6013C36.2227 26.6013 36.2102 26.6013 36.1977 26.6013C36.1852 26.6013 36.1726 26.6013 36.1601 26.6013C36.1475 26.6013 36.135 26.6013 36.1224 26.6013C36.1099 26.6013 36.0973 26.6013 36.0848 26.6013C36.0722 26.6013 36.0597 26.6013 36.0471 26.6013C36.0345 26.6013 36.022 26.6013 36.0094 26.6013C35.9968 26.6013 35.9842 26.6013 35.9717 26.6013C35.9591 26.6013 35.9465 26.6013 35.9339 26.6013C35.9213 26.6013 35.9087 26.6013 35.8961 26.6013C35.8835 26.6013 35.8709 26.6013 35.8583 26.6013C35.8457 26.6013 35.8331 26.6013 35.8205 26.6013C35.8079 26.6013 35.7953 26.6013 35.7827 26.6013C35.77 26.6013 35.7574 26.6013 35.7448 26.6013C35.7322 26.6013 35.7195 26.6013 35.7069 26.6013C35.6943 26.6013 35.6816 26.6013 35.669 26.6013C35.6564 26.6013 35.6437 26.6013 35.6311 26.6013C35.6184 26.6013 35.6058 26.6013 35.5931 26.6013C35.5805 26.6013 35.5678 26.6013 35.5552 26.6013C35.5425 26.6013 35.5299 26.6013 35.5172 26.6013C35.5045 26.6013 35.4919 26.6013 35.4792 26.6013C35.4665 26.6013 35.4539 26.6013 35.4412 26.6013C35.4285 26.6013 35.4158 26.6013 35.4032 26.6013C35.3905 26.6013 35.3778 26.6013 35.3651 26.6013C35.3524 26.6013 35.3398 26.6013 35.3271 26.6013C35.3144 26.6013 35.3017 26.6013 35.289 26.6013C35.2763 26.6013 35.2636 26.6013 35.2509 26.6013C35.2382 26.6013 35.2255 26.6013 35.2128 26.6013C35.2001 26.6013 35.1874 26.6013 35.1747 26.6013C35.162 26.6013 35.1493 26.6013 35.1366 26.6013C35.1239 26.6013 35.1112 26.6013 35.0985 26.6013C35.0857 26.6013 35.073 26.6013 35.0603 26.6013C35.0476 26.6013 35.0349 26.6013 35.0222 26.6013C35.0094 26.6013 34.9967 26.6013 34.984 26.6013C34.9713 26.6013 34.9585 26.6013 34.9458 26.6013C34.9331 26.6013 34.9204 26.6013 34.9076 26.6013C34.8949 26.6013 34.8822 26.6013 34.8694 26.6013C34.8567 26.6013 34.844 26.6013 34.8312 26.6013C34.8185 26.6013 34.8058 26.6013 34.793 26.6013C34.7803 26.6013 34.7676 26.6013 34.7548 26.6013C34.7421 26.6013 34.7294 26.6013 34.7166 26.6013C34.7039 26.6013 34.6911 26.6013 34.6784 26.6013C34.6656 26.6013 34.6529 26.6013 34.6402 26.6013C34.6274 26.6013 34.6147 26.6013 34.6019 26.6013C34.5892 26.6013 34.5764 26.6013 34.5637 26.6013C34.5509 26.6013 34.5382 26.6013 34.5254 26.6013C34.5127 26.6013 34.5 26.6013 34.4872 26.6013C34.4745 26.6013 34.4617 26.6013 34.449 26.6013C34.4362 26.6013 34.4235 26.6013 34.4107 26.6013C34.398 26.6013 34.3852 26.6013 34.3725 26.6013C34.3597 26.6013 34.347 26.6013 34.3342 26.6013C34.3215 26.6013 34.3087 26.6013 34.296 26.6013C34.2832 26.6013 34.2705 26.6013 34.2577 26.6013C34.245 26.6013 34.2322 26.6013 34.2195 26.6013C34.2067 26.6013 34.194 26.6013 34.1812 26.6013C34.1685 26.6013 34.1557 26.6013 34.143 26.6013C34.1302 26.6013 34.1175 26.6013 34.1047 26.6013C34.092 26.6013 34.0792 26.6013 34.0665 26.6013C34.0537 26.6013 34.041 26.6013 34.0282 26.6013C34.0155 26.6013 34.0028 26.6013 33.99 26.6013C33.9773 26.6013 33.9645 26.6013 33.9518 26.6013C33.939 26.6013 33.9263 26.6013 33.9136 26.6013C33.9008 26.6013 33.8881 26.6013 33.8754 26.6013C33.8626 26.6013 33.8499 26.6013 33.8371 26.6013C33.8244 26.6013 33.8117 26.6013 33.7989 26.6013C33.7862 26.6013 33.7735 26.6013 33.7607 26.6013C33.748 26.6013 33.7353 26.6013 33.7226 26.6013C33.7098 26.6013 33.6971 26.6013 33.6844 26.6013C33.6716 26.6013 33.6589 26.6013 33.6462 26.6013C33.6335 26.6013 33.6208 26.6013 33.608 26.6013C33.5953 26.6013 33.5826 26.6013 33.5699 26.6013C33.5572 26.6013 33.5445 26.6013 33.5317 26.6013C33.519 26.6013 33.5063 26.6013 33.4936 26.6013C33.4809 26.6013 33.4682 26.6013 33.4555 26.6013C33.4428 26.6013 33.4301 26.6013 33.4174 26.6013C33.4047 26.6013 33.392 26.6013 33.3793 26.6013C33.3666 26.6013 33.3539 26.6013 33.3412 26.6013C33.3285 26.6013 33.3158 26.6013 33.3032 26.6013C33.2905 26.6013 33.2778 26.6013 33.2651 26.6013C33.2524 26.6013 33.2397 26.6013 33.2271 26.6013C33.2144 26.6013 33.2017 26.6013 33.1891 26.6013C33.1764 26.6013 33.1637 26.6013 33.1511 26.6013C33.1384 26.6013 33.1257 26.6013 33.1131 26.6013C33.1004 26.6013 33.0877 26.6013 33.0751 26.6013C33.0624 26.6013 33.0498 26.6013 33.0371 26.6013C33.0245 26.6013 33.0118 26.6013 32.9992 26.6013C32.9866 26.6013 32.9739 26.6013 32.9613 26.6013C32.9487 26.6013 32.936 26.6013 32.9234 26.6013C32.9108 26.6013 32.8981 26.6013 32.8855 26.6013C32.8729 26.6013 32.8603 26.6013 32.8477 26.6013C32.835 26.6013 32.8224 26.6013 32.8098 26.6013C32.7972 26.6013 32.7846 26.6013 32.772 26.6013C32.7594 26.6013 32.7468 26.6013 32.7342 26.6013C32.7216 26.6013 32.709 26.6013 32.6964 26.6013C32.6839 26.6013 32.6713 26.6013 32.6587 26.6013C32.6461 26.6013 32.6335 26.6013 32.621 26.6013C32.6084 26.6013 32.5958 26.6013 32.5833 26.6013C32.5707 26.6013 32.5581 26.6013 32.5456 26.6013C32.533 26.6013 32.5205 26.6013 32.5079 26.6013C32.4954 26.6013 32.4829 26.6013 32.4703 26.6013C32.4578 26.6013 32.4452 26.6013 32.4327 26.6013C32.4202 26.6013 32.4077 26.6013 32.3951 26.6013C32.3826 26.6013 32.3701 26.6013 32.3576 26.6013C32.3451 26.6013 32.3326 26.6013 32.3201 26.6013C32.3076 26.6013 32.2951 26.6013 32.2826 26.6013C32.2701 26.6013 32.2576 26.6013 32.2451 26.6013C32.2327 26.6013 32.2202 26.6013 32.2077 26.6013C32.1952 26.6013 32.1828 26.6013 32.1703 26.6013C32.1579 26.6013 32.1454 26.6013 32.1329 26.6013C32.1205 26.6013 32.108 26.6013 32.0956 26.6013C32.0832 26.6013 32.0707 26.6013 32.0583 26.6013C32.0459 26.6013 32.0334 26.6013 32.021 26.6013C32.0086 26.6013 31.9962 26.6013 31.9838 26.6013C31.9714 26.6013 31.959 26.6013 31.9466 26.6013C31.9342 26.6013 31.9218 26.6013 31.9094 26.6013C31.897 26.6013 31.8846 26.6013 31.8723 26.6013C31.8599 26.6013 31.8475 26.6013 31.8352 26.6013C31.8228 26.6013 31.8104 26.6013 31.7981 26.6013C31.7857 26.6013 31.7734 26.6013 31.7611 26.6013C31.7487 26.6013 31.7364 26.6013 31.7241 26.6013C31.7117 26.6013 31.6994 26.6013 31.6871 26.6013C31.6748 26.6013 31.6625 26.6013 31.6502 26.6013C31.6379 26.6013 31.6256 26.6013 31.6133 26.6013C31.601 26.6013 31.5887 26.6013 31.5765 26.6013C31.5642 26.6013 31.5519 26.6013 31.5396 26.6013C31.5274 26.6013 31.5151 26.6013 31.5029 26.6013C31.4906 26.6013 31.4784 26.6013 31.4662 26.6013C31.4539 26.6013 31.4417 26.6013 31.4295 26.6013C31.4172 26.6013 31.405 26.6013 31.3928 26.6013C31.3806 26.6013 31.3684 26.6013 31.3562 26.6013C31.344 26.6013 31.3318 26.6013 31.3197 26.6013C31.3075 26.6013 31.2953 26.6013 31.2831 26.6013C31.271 26.6013 31.2588 26.6013 31.2467 26.6013C31.2345 26.6013 31.2224 26.6013 31.2102 26.6013C31.1981 26.6013 31.186 26.6013 31.1739 26.6013C31.1617 26.6013 31.1496 26.6013 31.1375 26.6013C31.1254 26.6013 31.1133 26.6013 31.1012 26.6013C31.0891 26.6013 31.077 26.6013 31.065 26.6013C31.0529 26.6013 31.0408 26.6013 31.0288 26.6013C31.0167 26.6013 31.0047 26.6013 30.9926 26.6013C30.9806 26.6013 30.9685 26.6013 30.9565 26.6013C30.9445 26.6013 30.9325 26.6013 30.9205 26.6013C30.9084 26.6013 30.8964 26.6013 30.8844 26.6013C30.8724 26.6013 30.8605 26.6013 30.8485 26.6013C30.8365 26.6013 30.8245 26.6013 30.8126 26.6013C30.8006 26.6013 30.7887 26.6013 30.7767 26.6013C30.7648 26.6013 30.7528 26.6013 30.7409 26.6013C30.729 26.6013 30.7171 26.6013 30.7052 26.6013C30.6932 26.6013 30.6813 26.6013 30.6694 26.6013C30.6576 26.6013 30.6457 26.6013 30.6338 26.6013C30.6219 26.6013 30.6101 26.6013 30.5982 26.6013C30.5863 26.6013 30.5745 26.6013 30.5627 26.6013C30.5508 26.6013 30.539 26.6013 30.5272 26.6013C30.5153 26.6013 30.5035 26.6013 30.4917 26.6013C30.4799 26.6013 30.4681 26.6013 30.4563 26.6013C30.4446 26.6013 30.4328 26.6013 30.421 26.6013C30.4093 26.6013 30.3975 26.6013 30.3858 26.6013C30.374 26.6013 30.3623 26.6013 30.3505 26.6013C30.3388 26.6013 30.3271 26.6013 30.3154 26.6013C30.3037 26.6013 30.292 26.6013 30.2803 26.6013C30.2686 26.6013 30.2569 26.6013 30.2453 26.6013C30.2336 26.6013 30.2219 26.6013 30.2103 26.6013C30.1986 26.6013 30.187 26.6013 30.1754 26.6013C30.1637 26.6013 30.1521 26.6013 30.1405 26.6013C30.1289 26.6013 30.1173 26.6013 30.1057 26.6013C30.0941 26.6013 30.0825 26.6013 30.071 26.6013C30.0594 26.6013 30.0478 26.6013 30.0363 26.6013C30.0248 26.6013 30.0132 26.6013 30.0017 26.6013C29.9902 26.6013 29.9786 26.6013 29.9671 26.6013C29.9556 26.6013 29.9441 26.6013 29.9327 26.6013C29.9212 26.6013 29.9097 26.6013 29.8982 26.6013C29.8868 26.6013 29.8753 26.6013 29.8639 26.6013C29.8524 26.6013 29.841 26.6013 29.8296 26.6013C29.8182 26.6013 29.8068 26.6013 29.7954 26.6013C29.784 26.6013 29.7726 26.6013 29.7612 26.6013C29.7498 26.6013 29.7385 26.6013 29.7271 26.6013C29.7158 26.6013 29.7044 26.6013 29.6931 26.6013C29.6818 26.6013 29.6704 26.6013 29.6591 26.6013C29.6478 26.6013 29.6365 26.6013 29.6252 26.6013C29.6139 26.6013 29.6027 26.6013 29.5914 26.6013C29.5802 26.6013 29.5689 26.6013 29.5577 26.6013C29.5464 26.6013 29.5352 26.6013 29.524 26.6013C29.5128 26.6013 29.5016 26.6013 29.4904 26.6013C29.4792 26.6013 29.468 26.6013 29.4568 26.6013C29.4457 26.6013 29.4345 26.6013 29.4234 26.6013C29.4122 26.6013 29.4011 26.6013 29.39 26.6013C29.3788 26.6013 29.3677 26.6013 29.3566 26.6013C29.3455 26.6013 29.3345 26.6013 29.3234 26.6013C29.3123 26.6013 29.3013 26.6013 29.2902 26.6013C29.2792 26.6013 29.2681 26.6013 29.2571 26.6013C29.2461 26.6013 29.2351 26.6013 29.2241 26.6013C29.2131 26.6013 29.2021 26.6013 29.1911 26.6013C29.1802 26.6013 29.1692 26.6013 29.1583 26.6013C29.1473 26.6013 29.1364 26.6013 29.1255 26.6013C29.1145 26.6013 29.1036 26.6013 29.0927 26.6013C29.0818 26.6013 29.071 26.6013 29.0601 26.6013C29.0492 26.6013 29.0384 26.6013 29.0275 26.6013C29.0167 26.6013 29.0058 26.6013 28.995 26.6013C28.9842 26.6013 28.9734 26.6013 28.9626 26.6013C28.9518 26.6013 28.941 26.6013 28.9303 26.6013C28.9195 26.6013 28.9088 26.6013 28.898 26.6013C28.8873 26.6013 28.8766 26.6013 28.8659 26.6013C28.8552 26.6013 28.8445 26.6013 28.8338 26.6013C28.8231 26.6013 28.8124 26.6013 28.8018 26.6013C28.7911 26.6013 28.7805 26.6013 28.7698 26.6013C28.7592 26.6013 28.7486 26.6013 28.738 26.6013C28.7274 26.6013 28.7168 26.6013 28.7062 26.6013C28.6957 26.6013 28.6851 26.6013 28.6746 26.6013C28.664 26.6013 28.6535 26.6013 28.643 26.6013C28.6325 26.6013 28.622 26.6013 28.6115 26.6013C28.601 26.6013 28.5905 26.6013 28.5801 26.6013C28.5696 26.6013 28.5591 26.6013 28.5487 26.6013C28.5383 26.6013 28.5279 26.6013 28.5175 26.6013C28.5071 26.6013 28.4967 26.6013 28.4863 26.6013C28.4759 26.6013 28.4656 26.6013 28.4552 26.6013C28.4449 26.6013 28.4346 26.6013 28.4243 26.6013C28.4139 26.6013 28.4036 26.6013 28.3934 26.6013C28.3831 26.6013 28.3728 26.6013 28.3626 26.6013C28.3523 26.6013 28.3421 26.6013 28.3318 26.6013C28.3216 26.6013 28.3114 26.6013 28.3012 26.6013C28.291 26.6013 28.2808 26.6013 28.2707 26.6013C28.2605 26.6013 28.2504 26.6013 28.2402 26.6013C28.2301 26.6013 28.22 26.6013 28.2099 26.6013C28.1998 26.6013 28.1897 26.6013 28.1796 26.6013C28.1696 26.6013 28.1595 26.6013 28.1495 26.6013C28.1394 26.6013 28.1294 26.6013 28.1194 26.6013C28.1094 26.6013 28.0994 26.6013 28.0894 26.6013C28.0794 26.6013 28.0695 26.6013 28.0595 26.6013C28.0496 26.6013 28.0397 26.6013 28.0297 26.6013C28.0198 26.6013 28.0099 26.6013 28.0001 26.6013C27.9902 26.6013 27.9803 26.6013 27.9705 26.6013C27.9606 26.6013 27.9508 26.6013 27.941 26.6013C27.9311 26.6013 27.9213 26.6013 27.9116 26.6013C27.9018 26.6013 27.892 26.6013 27.8823 26.6013C27.8725 26.6013 27.8628 26.6013 27.8531 26.6013C27.8433 26.6013 27.8336 26.6013 27.8239 26.6013C27.8143 26.6013 27.8046 26.6013 27.7949 26.6013C27.7853 26.6013 27.7757 26.6013 27.766 26.6013C27.7564 26.6013 27.7468 26.6013 27.7372 26.6013C27.7276 26.6013 27.7181 26.6013 27.7085 26.6013C27.699 26.6013 27.6894 26.6013 27.6799 26.6013C27.6704 26.6013 27.6609 26.6013 27.6514 26.6013C27.6419 26.6013 27.6325 26.6013 27.623 26.6013C27.6136 26.6013 27.6042 26.6013 27.5947 26.6013C27.5853 26.6013 27.5759 26.6013 27.5665 26.6013C27.5572 26.6013 27.5478 26.6013 27.5385 26.6013C27.5291 26.6013 27.5198 26.6013 27.5105 26.6013C27.5012 26.6013 27.4919 26.6013 27.4826 26.6013C27.4733 26.6013 27.4641 26.6013 27.4548 26.6013C27.4456 26.6013 27.4364 26.6013 27.4272 26.6013C27.418 26.6013 27.4088 26.6013 27.3996 26.6013C27.3905 26.6013 27.3813 26.6013 27.3722 26.6013C27.363 26.6013 27.3539 26.6013 27.3448 26.6013C27.3357 26.6013 27.3267 26.6013 27.3176 26.6013C27.3085 26.6013 27.2995 26.6013 27.2905 26.6013C27.2815 26.6013 27.2725 26.6013 27.2635 26.6013C27.2545 26.6013 27.2455 26.6013 27.2366 26.6013C27.2276 26.6013 27.2187 26.6013 27.2098 26.6013C27.2009 26.6013 27.192 26.6013 27.1831 26.6013C27.1742 26.6013 27.1654 26.6013 27.1565 26.6013C27.1477 26.6013 27.1389 26.6013 27.1301 26.6013C27.1213 26.6013 27.1125 26.6013 27.1037 26.6013C27.095 26.6013 27.0862 26.6013 27.0775 26.6013C27.0688 26.6013 27.0601 26.6013 27.0514 26.6013C27.0427 26.6013 27.034 26.6013 27.0254 26.6013C27.0168 26.6013 27.0081 26.6013 26.9995 26.6013C26.9909 26.6013 26.9823 26.6013 26.9737 26.6013C26.9652 26.6013 26.9566 26.6013 26.9481 26.6013C26.9396 26.6013 26.9311 26.6013 26.9226 26.6013C26.9141 26.6013 26.9056 26.6013 26.8971 26.6013C26.8887 26.6013 26.8803 26.6013 26.8718 26.6013C26.8634 26.6013 26.855 26.6013 26.8467 26.6013C26.8383 26.6013 26.8299 26.6013 26.8216 26.6013C26.8133 26.6013 26.805 26.6013 26.7967 26.6013C26.7884 26.6013 26.7801 26.6013 26.7718 26.6013C26.7636 26.6013 26.7553 26.6013 26.7471 26.6013C26.7389 26.6013 26.7307 26.6013 26.7226 26.6013C26.7144 26.6013 26.7062 26.6013 26.6981 26.6013C26.69 26.6013 26.6818 26.6013 26.6738 26.6013C26.6657 26.6013 26.6576 26.6013 26.6495 26.6013C26.6415 26.6013 26.6335 26.6013 26.6255 26.6013C26.6174 26.6013 26.6095 26.6013 26.6015 26.6013C26.5935 26.6013 26.5856 26.6013 26.5776 26.6013C26.5697 26.6013 26.5618 26.6013 26.5539 26.6013C26.546 26.6013 26.5382 26.6013 26.5303 26.6013C26.5225 26.6013 26.5147 26.6013 26.5069 26.6013C26.4991 26.6013 26.4913 26.6013 26.4835 26.6013C26.4758 26.6013 26.468 26.6013 26.4603 26.6013C26.4526 26.6013 26.4449 26.6013 26.4372 26.6013C26.4296 26.6013 26.4219 26.6013 26.4143 26.6013C26.4066 26.6013 26.399 26.6013 26.3914 26.6013C26.3839 26.6013 26.3763 26.6013 26.3687 26.6013C26.3612 26.6013 26.3537 26.6013 26.3462 26.6013C26.3387 26.6013 26.3312 26.6013 26.3237 26.6013C26.3163 26.6013 26.3088 26.6013 26.3014 26.6013C26.294 26.6013 26.2866 26.6013 26.2793 26.6013C26.2719 26.6013 26.2645 26.6013 26.2572 26.6013C26.2499 26.6013 26.2426 26.6013 26.2353 26.6013C26.228 26.6013 26.2208 26.6013 26.2135 26.6013C26.2063 26.6013 26.1991 26.6013 26.1919 26.6013C26.1847 26.6013 26.1775 26.6013 26.1704 26.6013C26.1632 26.6013 26.1561 26.6013 26.149 26.6013C26.1419 26.6013 26.1348 26.6013 26.1277 26.6013C26.1207 26.6013 26.1136 26.6013 26.1066 26.6013C26.0996 26.6013 26.0926 26.6013 26.0857 26.6013C26.0787 26.6013 26.0718 26.6013 26.0648 26.6013C26.0579 26.6013 26.051 26.6013 26.0441 26.6013C26.0373 26.6013 26.0304 26.6013 26.0236 26.6013C26.0167 26.6013 26.0099 26.6013 26.0032 26.6013C25.9964 26.6013 25.9896 26.6013 25.9829 26.6013C25.9761 26.6013 25.9694 26.6013 25.9627 26.6013C25.956 26.6013 25.9494 26.6013 25.9427 26.6013C25.9361 26.6013 25.9295 26.6013 25.9229 26.6013C25.9163 26.6013 25.9097 26.6013 25.9032 26.6013C25.8966 26.6013 25.8901 26.6013 25.8836 26.6013C25.8771 26.6013 25.8706 26.6013 25.8641 26.6013C25.8577 26.6013 25.8513 26.6013 25.8448 26.6013C25.8384 26.6013 25.8321 26.6013 25.8257 26.6013C25.8193 26.6013 25.813 26.6013 25.8067 26.6013C25.8004 26.6013 25.7941 26.6013 25.7878 26.6013C25.7816 26.6013 25.7753 26.6013 25.7691 26.6013C25.7629 26.6013 25.7567 26.6013 25.7505 26.6013C25.7444 26.6013 25.7382 26.6013 25.7321 26.6013C25.726 26.6013 25.7199 26.6013 25.7138 26.6013C25.7078 26.6013 25.7017 26.6013 25.6957 26.6013C25.6897 26.6013 25.6837 26.6013 25.6777 26.6013C25.6717 26.6013 25.6658 26.6013 25.6599 26.6013C25.654 26.6013 25.6481 26.6013 25.6422 26.6013C25.6363 26.6013 25.6305 26.6013 25.6247 26.6013C25.6188 26.6013 25.613 26.6013 25.6073 26.6013C25.6015 26.6013 25.5957 26.6013 25.59 26.6013C25.5843 26.6013 25.5786 26.6013 25.5729 26.6013C25.5673 26.6013 25.5616 26.6013 25.556 26.6013C25.5504 26.6013 25.5448 26.6013 25.5392 26.6013C25.5336 26.6013 25.5281 26.6013 25.5226 26.6013C25.5171 26.6013 25.5116 26.6013 25.5061 26.6013C25.5006 26.6013 25.4952 26.6013 25.4898 26.6013C25.4844 26.6013 25.479 26.6013 25.4736 26.6013C25.4682 26.6013 25.4629 26.6013 25.4576 26.6013C25.4523 26.6013 25.447 26.6013 25.4417 26.6013C25.4365 26.6013 25.4312 26.6013 25.426 26.6013C25.4208 26.6013 25.4156 26.6013 25.4105 26.6013C25.4053 26.6013 25.4002 26.6013 25.3951 26.6013C25.39 26.6013 25.3849 26.6013 25.3798 26.6013C25.3748 26.6013 25.3698 26.6013 25.3648 26.6013C25.3598 26.6013 25.3548 26.6013 25.3498 26.6013C25.3449 26.6013 25.34 26.6013 25.3351 26.6013C25.3302 26.6013 25.3253 26.6013 25.3205 26.6013C25.3156 26.6013 25.3108 26.6013 25.306 26.6013C25.3013 26.6013 25.2965 26.6013 25.2918 26.6013C25.287 26.6013 25.2823 26.6013 25.2776 26.6013C25.273 26.6013 25.2683 26.6013 25.2637 26.6013C25.2591 26.6013 25.2545 26.6013 25.2499 26.6013C25.2453 26.6013 25.2408 26.6013 25.2362 26.6013C25.2317 26.6013 25.2272 26.6013 25.2228 26.6013C25.2183 26.6013 25.2139 26.6013 25.2095 26.6013C25.2051 26.6013 25.2007 26.6013 25.1963 26.6013C25.192 26.6013 25.1876 26.6013 25.1833 26.6013C25.1791 26.6013 25.1748 26.6013 25.1705 26.6013C25.1663 26.6013 25.1621 26.6013 25.1579 26.6013C25.1537 26.6013 25.1495 26.6013 25.1454 26.6013C25.1413 26.6013 25.1372 26.6013 25.1331 26.6013C25.129 26.6013 25.125 26.6013 25.121 26.6013C25.1169 26.6013 25.1129 26.6013 25.109 26.6013C25.105 26.6013 25.1011 26.6013 25.0972 26.6013C25.0933 26.6013 25.0894 26.6013 25.0855 26.6013C25.0817 26.6013 25.0778 26.6013 25.0741 26.6013C25.0703 26.6013 25.0665 26.6013 25.0628 26.6013C25.059 26.6013 25.0553 26.6013 25.0516 26.6013C25.0479 26.6013 25.0443 26.6013 25.0407 26.6013C25.037 26.6013 25.0334 26.6013 25.0299 26.6013C25.0263 26.6013 25.0228 26.6013 25.0193 26.6013C25.0158 26.6013 25.0123 26.6013 25.0088 26.6013C25.0054 26.6013 25.0019 26.6013 24.9986 26.6013C24.9952 26.6013 24.9918 26.6013 24.9885 26.6013C24.9851 26.6013 24.9818 26.6013 24.9785 26.6013C24.9753 26.6013 24.972 26.6013 24.9688 26.6013C24.9656 26.6013 24.9624 26.6013 24.9592 26.6013C24.9561 26.6013 24.9529 26.6013 24.9498 26.6013C24.9467 26.6013 24.9437 26.6013 24.9406 26.6013C24.9376 26.6013 24.9346 26.6013 24.9316 26.6013C24.9286 26.6013 24.9256 26.6013 24.9227 26.6013C24.9198 26.6013 24.9169 26.6013 24.914 26.6013C24.9112 26.6013 24.9083 26.6013 24.9055 26.6013C24.9027 26.6013 24.9 26.6013 24.8972 26.6013C24.8945 26.6013 24.8918 26.6013 24.8891 26.6013C24.8864 26.6013 24.8837 26.6013 24.8811 26.6013C24.8785 26.6013 24.8759 26.6013 24.8733 26.6013C24.8708 26.6013 24.8682 26.6013 24.8657 26.6013C24.8632 26.6013 24.8607 26.6013 24.8583 26.6013C24.8559 26.6013 24.8534 26.6013 24.8511 26.6013C24.8487 26.6013 24.8463 26.6013 24.844 26.6013C24.8417 26.6013 24.8394 26.6013 24.8371 26.6013C24.8349 26.6013 24.8327 26.6013 24.8305 26.6013C24.8283 26.6013 24.8261 26.6013 24.824 26.6013C24.8218 26.6013 24.8197 26.6013 24.8176 26.6013C24.8156 26.6013 24.8135 26.6013 24.8115 26.6013C24.8095 26.6013 24.8075 26.6013 24.8056 26.6013C24.8036 26.6013 24.8017 26.6013 24.7998 26.6013C24.7979 26.6013 24.7961 26.6013 24.7942 26.6013C24.7924 26.6013 24.7906 26.6013 24.7889 26.6013C24.7871 26.6013 24.7854 26.6013 24.7837 26.6013C24.782 26.6013 24.7803 26.6013 24.7787 26.6013C24.777 26.6013 24.7754 26.6013 24.7738 26.6013C24.7723 26.6013 24.7707 26.6013 24.7692 26.6013C24.7677 26.6013 24.7662 26.6013 24.7648 26.6013C24.7633 26.6013 24.7619 26.6013 24.7605 26.6013C24.7592 26.6013 24.7578 26.6013 24.7565 26.6013C24.7552 26.6013 24.7539 26.6013 24.7526 26.6013C24.7514 26.6013 24.7502 26.6013 24.749 26.6013C24.7478 26.6013 24.7466 26.6013 24.7455 26.6013C24.7444 26.6013 24.7433 26.6013 24.7422 26.6013C24.7412 26.6013 24.7401 26.6013 24.7391 26.6013C24.7381 26.6013 24.7372 26.6013 24.7363 26.6013C24.7353 26.6013 24.7344 26.6013 24.7336 26.6013C24.7327 26.6013 24.7319 26.6013 24.7311 26.6013C24.7303 26.6013 24.7295 26.6013 24.7288 26.6013C24.728 26.6013 24.7273 26.6013 24.7267 26.6013C24.726 26.6013 24.7254 26.6013 24.7248 26.6013C24.7242 26.6013 24.7236 26.6013 24.7231 26.6013C24.7225 26.6013 24.722 26.6013 24.7215 26.6013C24.7211 26.6013 24.7206 26.6013 24.7202 26.6013C24.7198 26.6013 24.7195 26.6013 24.7191 26.6013C24.7188 26.6013 24.7185 26.6013 24.7182 26.6013C24.7179 26.6013 24.7177 26.6013 24.7175 26.6013C24.7173 26.6013 24.7171 26.6013 24.717 26.6013C24.7169 26.6013 24.7168 26.6013 24.7167 26.6013C24.7166 26.6013 24.7166 26.6013 24.7166 27.6013C24.7166 28.6013 24.7166 28.6013 24.7167 28.6013C24.7168 28.6013 24.7169 28.6013 24.717 28.6013C24.7171 28.6013 24.7173 28.6013 24.7175 28.6013C24.7177 28.6013 24.7179 28.6013 24.7182 28.6013C24.7185 28.6013 24.7188 28.6013 24.7191 28.6013C24.7195 28.6013 24.7198 28.6013 24.7202 28.6013C24.7206 28.6013 24.7211 28.6013 24.7215 28.6013C24.722 28.6013 24.7225 28.6013 24.7231 28.6013C24.7236 28.6013 24.7242 28.6013 24.7248 28.6013C24.7254 28.6013 24.726 28.6013 24.7267 28.6013C24.7273 28.6013 24.728 28.6013 24.7288 28.6013C24.7295 28.6013 24.7303 28.6013 24.7311 28.6013C24.7319 28.6013 24.7327 28.6013 24.7336 28.6013C24.7344 28.6013 24.7353 28.6013 24.7363 28.6013C24.7372 28.6013 24.7381 28.6013 24.7391 28.6013C24.7401 28.6013 24.7412 28.6013 24.7422 28.6013C24.7433 28.6013 24.7444 28.6013 24.7455 28.6013C24.7466 28.6013 24.7478 28.6013 24.749 28.6013C24.7502 28.6013 24.7514 28.6013 24.7526 28.6013C24.7539 28.6013 24.7552 28.6013 24.7565 28.6013C24.7578 28.6013 24.7592 28.6013 24.7605 28.6013C24.7619 28.6013 24.7633 28.6013 24.7648 28.6013C24.7662 28.6013 24.7677 28.6013 24.7692 28.6013C24.7707 28.6013 24.7723 28.6013 24.7738 28.6013C24.7754 28.6013 24.777 28.6013 24.7787 28.6013C24.7803 28.6013 24.782 28.6013 24.7837 28.6013C24.7854 28.6013 24.7871 28.6013 24.7889 28.6013C24.7906 28.6013 24.7924 28.6013 24.7942 28.6013C24.7961 28.6013 24.7979 28.6013 24.7998 28.6013C24.8017 28.6013 24.8036 28.6013 24.8056 28.6013C24.8075 28.6013 24.8095 28.6013 24.8115 28.6013C24.8135 28.6013 24.8156 28.6013 24.8176 28.6013C24.8197 28.6013 24.8218 28.6013 24.824 28.6013C24.8261 28.6013 24.8283 28.6013 24.8305 28.6013C24.8327 28.6013 24.8349 28.6013 24.8371 28.6013C24.8394 28.6013 24.8417 28.6013 24.844 28.6013C24.8463 28.6013 24.8487 28.6013 24.8511 28.6013C24.8534 28.6013 24.8559 28.6013 24.8583 28.6013C24.8607 28.6013 24.8632 28.6013 24.8657 28.6013C24.8682 28.6013 24.8708 28.6013 24.8733 28.6013C24.8759 28.6013 24.8785 28.6013 24.8811 28.6013C24.8837 28.6013 24.8864 28.6013 24.8891 28.6013C24.8918 28.6013 24.8945 28.6013 24.8972 28.6013C24.9 28.6013 24.9027 28.6013 24.9055 28.6013C24.9083 28.6013 24.9112 28.6013 24.914 28.6013C24.9169 28.6013 24.9198 28.6013 24.9227 28.6013C24.9256 28.6013 24.9286 28.6013 24.9316 28.6013C24.9346 28.6013 24.9376 28.6013 24.9406 28.6013C24.9437 28.6013 24.9467 28.6013 24.9498 28.6013C24.9529 28.6013 24.9561 28.6013 24.9592 28.6013C24.9624 28.6013 24.9656 28.6013 24.9688 28.6013C24.972 28.6013 24.9753 28.6013 24.9785 28.6013C24.9818 28.6013 24.9851 28.6013 24.9885 28.6013C24.9918 28.6013 24.9952 28.6013 24.9986 28.6013C25.0019 28.6013 25.0054 28.6013 25.0088 28.6013C25.0123 28.6013 25.0158 28.6013 25.0193 28.6013C25.0228 28.6013 25.0263 28.6013 25.0299 28.6013C25.0334 28.6013 25.037 28.6013 25.0407 28.6013C25.0443 28.6013 25.0479 28.6013 25.0516 28.6013C25.0553 28.6013 25.059 28.6013 25.0628 28.6013C25.0665 28.6013 25.0703 28.6013 25.0741 28.6013C25.0778 28.6013 25.0817 28.6013 25.0855 28.6013C25.0894 28.6013 25.0933 28.6013 25.0972 28.6013C25.1011 28.6013 25.105 28.6013 25.109 28.6013C25.1129 28.6013 25.1169 28.6013 25.121 28.6013C25.125 28.6013 25.129 28.6013 25.1331 28.6013C25.1372 28.6013 25.1413 28.6013 25.1454 28.6013C25.1495 28.6013 25.1537 28.6013 25.1579 28.6013C25.1621 28.6013 25.1663 28.6013 25.1705 28.6013C25.1748 28.6013 25.1791 28.6013 25.1833 28.6013C25.1876 28.6013 25.192 28.6013 25.1963 28.6013C25.2007 28.6013 25.2051 28.6013 25.2095 28.6013C25.2139 28.6013 25.2183 28.6013 25.2228 28.6013C25.2272 28.6013 25.2317 28.6013 25.2362 28.6013C25.2408 28.6013 25.2453 28.6013 25.2499 28.6013C25.2545 28.6013 25.2591 28.6013 25.2637 28.6013C25.2683 28.6013 25.273 28.6013 25.2776 28.6013C25.2823 28.6013 25.287 28.6013 25.2918 28.6013C25.2965 28.6013 25.3013 28.6013 25.306 28.6013C25.3108 28.6013 25.3156 28.6013 25.3205 28.6013C25.3253 28.6013 25.3302 28.6013 25.3351 28.6013C25.34 28.6013 25.3449 28.6013 25.3498 28.6013C25.3548 28.6013 25.3598 28.6013 25.3648 28.6013C25.3698 28.6013 25.3748 28.6013 25.3798 28.6013C25.3849 28.6013 25.39 28.6013 25.3951 28.6013C25.4002 28.6013 25.4053 28.6013 25.4105 28.6013C25.4156 28.6013 25.4208 28.6013 25.426 28.6013C25.4312 28.6013 25.4365 28.6013 25.4417 28.6013C25.447 28.6013 25.4523 28.6013 25.4576 28.6013C25.4629 28.6013 25.4682 28.6013 25.4736 28.6013C25.479 28.6013 25.4844 28.6013 25.4898 28.6013C25.4952 28.6013 25.5006 28.6013 25.5061 28.6013C25.5116 28.6013 25.5171 28.6013 25.5226 28.6013C25.5281 28.6013 25.5336 28.6013 25.5392 28.6013C25.5448 28.6013 25.5504 28.6013 25.556 28.6013C25.5616 28.6013 25.5673 28.6013 25.5729 28.6013C25.5786 28.6013 25.5843 28.6013 25.59 28.6013C25.5957 28.6013 25.6015 28.6013 25.6073 28.6013C25.613 28.6013 25.6188 28.6013 25.6247 28.6013C25.6305 28.6013 25.6363 28.6013 25.6422 28.6013C25.6481 28.6013 25.654 28.6013 25.6599 28.6013C25.6658 28.6013 25.6717 28.6013 25.6777 28.6013C25.6837 28.6013 25.6897 28.6013 25.6957 28.6013C25.7017 28.6013 25.7078 28.6013 25.7138 28.6013C25.7199 28.6013 25.726 28.6013 25.7321 28.6013C25.7382 28.6013 25.7444 28.6013 25.7505 28.6013C25.7567 28.6013 25.7629 28.6013 25.7691 28.6013C25.7753 28.6013 25.7816 28.6013 25.7878 28.6013C25.7941 28.6013 25.8004 28.6013 25.8067 28.6013C25.813 28.6013 25.8193 28.6013 25.8257 28.6013C25.8321 28.6013 25.8384 28.6013 25.8448 28.6013C25.8513 28.6013 25.8577 28.6013 25.8641 28.6013C25.8706 28.6013 25.8771 28.6013 25.8836 28.6013C25.8901 28.6013 25.8966 28.6013 25.9032 28.6013C25.9097 28.6013 25.9163 28.6013 25.9229 28.6013C25.9295 28.6013 25.9361 28.6013 25.9427 28.6013C25.9494 28.6013 25.956 28.6013 25.9627 28.6013C25.9694 28.6013 25.9761 28.6013 25.9829 28.6013C25.9896 28.6013 25.9964 28.6013 26.0032 28.6013C26.0099 28.6013 26.0167 28.6013 26.0236 28.6013C26.0304 28.6013 26.0373 28.6013 26.0441 28.6013C26.051 28.6013 26.0579 28.6013 26.0648 28.6013C26.0718 28.6013 26.0787 28.6013 26.0857 28.6013C26.0926 28.6013 26.0996 28.6013 26.1066 28.6013C26.1136 28.6013 26.1207 28.6013 26.1277 28.6013C26.1348 28.6013 26.1419 28.6013 26.149 28.6013C26.1561 28.6013 26.1632 28.6013 26.1704 28.6013C26.1775 28.6013 26.1847 28.6013 26.1919 28.6013C26.1991 28.6013 26.2063 28.6013 26.2135 28.6013C26.2208 28.6013 26.228 28.6013 26.2353 28.6013C26.2426 28.6013 26.2499 28.6013 26.2572 28.6013C26.2645 28.6013 26.2719 28.6013 26.2793 28.6013C26.2866 28.6013 26.294 28.6013 26.3014 28.6013C26.3088 28.6013 26.3163 28.6013 26.3237 28.6013C26.3312 28.6013 26.3387 28.6013 26.3462 28.6013C26.3537 28.6013 26.3612 28.6013 26.3687 28.6013C26.3763 28.6013 26.3839 28.6013 26.3914 28.6013C26.399 28.6013 26.4066 28.6013 26.4143 28.6013C26.4219 28.6013 26.4296 28.6013 26.4372 28.6013C26.4449 28.6013 26.4526 28.6013 26.4603 28.6013C26.468 28.6013 26.4758 28.6013 26.4835 28.6013C26.4913 28.6013 26.4991 28.6013 26.5069 28.6013C26.5147 28.6013 26.5225 28.6013 26.5303 28.6013C26.5382 28.6013 26.546 28.6013 26.5539 28.6013C26.5618 28.6013 26.5697 28.6013 26.5776 28.6013C26.5856 28.6013 26.5935 28.6013 26.6015 28.6013C26.6095 28.6013 26.6174 28.6013 26.6255 28.6013C26.6335 28.6013 26.6415 28.6013 26.6495 28.6013C26.6576 28.6013 26.6657 28.6013 26.6738 28.6013C26.6818 28.6013 26.69 28.6013 26.6981 28.6013C26.7062 28.6013 26.7144 28.6013 26.7226 28.6013C26.7307 28.6013 26.7389 28.6013 26.7471 28.6013C26.7553 28.6013 26.7636 28.6013 26.7718 28.6013C26.7801 28.6013 26.7884 28.6013 26.7967 28.6013C26.805 28.6013 26.8133 28.6013 26.8216 28.6013C26.8299 28.6013 26.8383 28.6013 26.8467 28.6013C26.855 28.6013 26.8634 28.6013 26.8718 28.6013C26.8803 28.6013 26.8887 28.6013 26.8971 28.6013C26.9056 28.6013 26.9141 28.6013 26.9226 28.6013C26.9311 28.6013 26.9396 28.6013 26.9481 28.6013C26.9566 28.6013 26.9652 28.6013 26.9737 28.6013C26.9823 28.6013 26.9909 28.6013 26.9995 28.6013C27.0081 28.6013 27.0168 28.6013 27.0254 28.6013C27.034 28.6013 27.0427 28.6013 27.0514 28.6013C27.0601 28.6013 27.0688 28.6013 27.0775 28.6013C27.0862 28.6013 27.095 28.6013 27.1037 28.6013C27.1125 28.6013 27.1213 28.6013 27.1301 28.6013C27.1389 28.6013 27.1477 28.6013 27.1565 28.6013C27.1654 28.6013 27.1742 28.6013 27.1831 28.6013C27.192 28.6013 27.2009 28.6013 27.2098 28.6013C27.2187 28.6013 27.2276 28.6013 27.2366 28.6013C27.2455 28.6013 27.2545 28.6013 27.2635 28.6013C27.2725 28.6013 27.2815 28.6013 27.2905 28.6013C27.2995 28.6013 27.3085 28.6013 27.3176 28.6013C27.3267 28.6013 27.3357 28.6013 27.3448 28.6013C27.3539 28.6013 27.363 28.6013 27.3722 28.6013C27.3813 28.6013 27.3905 28.6013 27.3996 28.6013C27.4088 28.6013 27.418 28.6013 27.4272 28.6013C27.4364 28.6013 27.4456 28.6013 27.4548 28.6013C27.4641 28.6013 27.4733 28.6013 27.4826 28.6013C27.4919 28.6013 27.5012 28.6013 27.5105 28.6013C27.5198 28.6013 27.5291 28.6013 27.5385 28.6013C27.5478 28.6013 27.5572 28.6013 27.5665 28.6013C27.5759 28.6013 27.5853 28.6013 27.5947 28.6013C27.6042 28.6013 27.6136 28.6013 27.623 28.6013C27.6325 28.6013 27.6419 28.6013 27.6514 28.6013C27.6609 28.6013 27.6704 28.6013 27.6799 28.6013C27.6894 28.6013 27.699 28.6013 27.7085 28.6013C27.7181 28.6013 27.7276 28.6013 27.7372 28.6013C27.7468 28.6013 27.7564 28.6013 27.766 28.6013C27.7757 28.6013 27.7853 28.6013 27.7949 28.6013C27.8046 28.6013 27.8143 28.6013 27.8239 28.6013C27.8336 28.6013 27.8433 28.6013 27.8531 28.6013C27.8628 28.6013 27.8725 28.6013 27.8823 28.6013C27.892 28.6013 27.9018 28.6013 27.9116 28.6013C27.9213 28.6013 27.9311 28.6013 27.941 28.6013C27.9508 28.6013 27.9606 28.6013 27.9705 28.6013C27.9803 28.6013 27.9902 28.6013 28.0001 28.6013C28.0099 28.6013 28.0198 28.6013 28.0297 28.6013C28.0397 28.6013 28.0496 28.6013 28.0595 28.6013C28.0695 28.6013 28.0794 28.6013 28.0894 28.6013C28.0994 28.6013 28.1094 28.6013 28.1194 28.6013C28.1294 28.6013 28.1394 28.6013 28.1495 28.6013C28.1595 28.6013 28.1696 28.6013 28.1796 28.6013C28.1897 28.6013 28.1998 28.6013 28.2099 28.6013C28.22 28.6013 28.2301 28.6013 28.2402 28.6013C28.2504 28.6013 28.2605 28.6013 28.2707 28.6013C28.2808 28.6013 28.291 28.6013 28.3012 28.6013C28.3114 28.6013 28.3216 28.6013 28.3318 28.6013C28.3421 28.6013 28.3523 28.6013 28.3626 28.6013C28.3728 28.6013 28.3831 28.6013 28.3934 28.6013C28.4036 28.6013 28.4139 28.6013 28.4243 28.6013C28.4346 28.6013 28.4449 28.6013 28.4552 28.6013C28.4656 28.6013 28.4759 28.6013 28.4863 28.6013C28.4967 28.6013 28.5071 28.6013 28.5175 28.6013C28.5279 28.6013 28.5383 28.6013 28.5487 28.6013C28.5591 28.6013 28.5696 28.6013 28.5801 28.6013C28.5905 28.6013 28.601 28.6013 28.6115 28.6013C28.622 28.6013 28.6325 28.6013 28.643 28.6013C28.6535 28.6013 28.664 28.6013 28.6746 28.6013C28.6851 28.6013 28.6957 28.6013 28.7062 28.6013C28.7168 28.6013 28.7274 28.6013 28.738 28.6013C28.7486 28.6013 28.7592 28.6013 28.7698 28.6013C28.7805 28.6013 28.7911 28.6013 28.8018 28.6013C28.8124 28.6013 28.8231 28.6013 28.8338 28.6013C28.8445 28.6013 28.8552 28.6013 28.8659 28.6013C28.8766 28.6013 28.8873 28.6013 28.898 28.6013C28.9088 28.6013 28.9195 28.6013 28.9303 28.6013C28.941 28.6013 28.9518 28.6013 28.9626 28.6013C28.9734 28.6013 28.9842 28.6013 28.995 28.6013C29.0058 28.6013 29.0167 28.6013 29.0275 28.6013C29.0384 28.6013 29.0492 28.6013 29.0601 28.6013C29.071 28.6013 29.0818 28.6013 29.0927 28.6013C29.1036 28.6013 29.1145 28.6013 29.1255 28.6013C29.1364 28.6013 29.1473 28.6013 29.1583 28.6013C29.1692 28.6013 29.1802 28.6013 29.1911 28.6013C29.2021 28.6013 29.2131 28.6013 29.2241 28.6013C29.2351 28.6013 29.2461 28.6013 29.2571 28.6013C29.2681 28.6013 29.2792 28.6013 29.2902 28.6013C29.3013 28.6013 29.3123 28.6013 29.3234 28.6013C29.3345 28.6013 29.3455 28.6013 29.3566 28.6013C29.3677 28.6013 29.3788 28.6013 29.39 28.6013C29.4011 28.6013 29.4122 28.6013 29.4234 28.6013C29.4345 28.6013 29.4457 28.6013 29.4568 28.6013C29.468 28.6013 29.4792 28.6013 29.4904 28.6013C29.5016 28.6013 29.5128 28.6013 29.524 28.6013C29.5352 28.6013 29.5464 28.6013 29.5577 28.6013C29.5689 28.6013 29.5802 28.6013 29.5914 28.6013C29.6027 28.6013 29.6139 28.6013 29.6252 28.6013C29.6365 28.6013 29.6478 28.6013 29.6591 28.6013C29.6704 28.6013 29.6818 28.6013 29.6931 28.6013C29.7044 28.6013 29.7158 28.6013 29.7271 28.6013C29.7385 28.6013 29.7498 28.6013 29.7612 28.6013C29.7726 28.6013 29.784 28.6013 29.7954 28.6013C29.8068 28.6013 29.8182 28.6013 29.8296 28.6013C29.841 28.6013 29.8524 28.6013 29.8639 28.6013C29.8753 28.6013 29.8868 28.6013 29.8982 28.6013C29.9097 28.6013 29.9212 28.6013 29.9327 28.6013C29.9441 28.6013 29.9556 28.6013 29.9671 28.6013C29.9786 28.6013 29.9902 28.6013 30.0017 28.6013C30.0132 28.6013 30.0248 28.6013 30.0363 28.6013C30.0478 28.6013 30.0594 28.6013 30.071 28.6013C30.0825 28.6013 30.0941 28.6013 30.1057 28.6013C30.1173 28.6013 30.1289 28.6013 30.1405 28.6013C30.1521 28.6013 30.1637 28.6013 30.1754 28.6013C30.187 28.6013 30.1986 28.6013 30.2103 28.6013C30.2219 28.6013 30.2336 28.6013 30.2453 28.6013C30.2569 28.6013 30.2686 28.6013 30.2803 28.6013C30.292 28.6013 30.3037 28.6013 30.3154 28.6013C30.3271 28.6013 30.3388 28.6013 30.3505 28.6013C30.3623 28.6013 30.374 28.6013 30.3858 28.6013C30.3975 28.6013 30.4093 28.6013 30.421 28.6013C30.4328 28.6013 30.4446 28.6013 30.4563 28.6013C30.4681 28.6013 30.4799 28.6013 30.4917 28.6013C30.5035 28.6013 30.5153 28.6013 30.5272 28.6013C30.539 28.6013 30.5508 28.6013 30.5627 28.6013C30.5745 28.6013 30.5863 28.6013 30.5982 28.6013C30.6101 28.6013 30.6219 28.6013 30.6338 28.6013C30.6457 28.6013 30.6576 28.6013 30.6694 28.6013C30.6813 28.6013 30.6932 28.6013 30.7052 28.6013C30.7171 28.6013 30.729 28.6013 30.7409 28.6013C30.7528 28.6013 30.7648 28.6013 30.7767 28.6013C30.7887 28.6013 30.8006 28.6013 30.8126 28.6013C30.8245 28.6013 30.8365 28.6013 30.8485 28.6013C30.8605 28.6013 30.8724 28.6013 30.8844 28.6013C30.8964 28.6013 30.9084 28.6013 30.9205 28.6013C30.9325 28.6013 30.9445 28.6013 30.9565 28.6013C30.9685 28.6013 30.9806 28.6013 30.9926 28.6013C31.0047 28.6013 31.0167 28.6013 31.0288 28.6013C31.0408 28.6013 31.0529 28.6013 31.065 28.6013C31.077 28.6013 31.0891 28.6013 31.1012 28.6013C31.1133 28.6013 31.1254 28.6013 31.1375 28.6013C31.1496 28.6013 31.1617 28.6013 31.1739 28.6013C31.186 28.6013 31.1981 28.6013 31.2102 28.6013C31.2224 28.6013 31.2345 28.6013 31.2467 28.6013C31.2588 28.6013 31.271 28.6013 31.2831 28.6013C31.2953 28.6013 31.3075 28.6013 31.3197 28.6013C31.3318 28.6013 31.344 28.6013 31.3562 28.6013C31.3684 28.6013 31.3806 28.6013 31.3928 28.6013C31.405 28.6013 31.4172 28.6013 31.4295 28.6013C31.4417 28.6013 31.4539 28.6013 31.4662 28.6013C31.4784 28.6013 31.4906 28.6013 31.5029 28.6013C31.5151 28.6013 31.5274 28.6013 31.5396 28.6013C31.5519 28.6013 31.5642 28.6013 31.5765 28.6013C31.5887 28.6013 31.601 28.6013 31.6133 28.6013C31.6256 28.6013 31.6379 28.6013 31.6502 28.6013C31.6625 28.6013 31.6748 28.6013 31.6871 28.6013C31.6994 28.6013 31.7117 28.6013 31.7241 28.6013C31.7364 28.6013 31.7487 28.6013 31.7611 28.6013C31.7734 28.6013 31.7857 28.6013 31.7981 28.6013C31.8104 28.6013 31.8228 28.6013 31.8352 28.6013C31.8475 28.6013 31.8599 28.6013 31.8723 28.6013C31.8846 28.6013 31.897 28.6013 31.9094 28.6013C31.9218 28.6013 31.9342 28.6013 31.9466 28.6013C31.959 28.6013 31.9714 28.6013 31.9838 28.6013C31.9962 28.6013 32.0086 28.6013 32.021 28.6013C32.0334 28.6013 32.0459 28.6013 32.0583 28.6013C32.0707 28.6013 32.0832 28.6013 32.0956 28.6013C32.108 28.6013 32.1205 28.6013 32.1329 28.6013C32.1454 28.6013 32.1579 28.6013 32.1703 28.6013C32.1828 28.6013 32.1952 28.6013 32.2077 28.6013C32.2202 28.6013 32.2327 28.6013 32.2451 28.6013C32.2576 28.6013 32.2701 28.6013 32.2826 28.6013C32.2951 28.6013 32.3076 28.6013 32.3201 28.6013C32.3326 28.6013 32.3451 28.6013 32.3576 28.6013C32.3701 28.6013 32.3826 28.6013 32.3951 28.6013C32.4077 28.6013 32.4202 28.6013 32.4327 28.6013C32.4452 28.6013 32.4578 28.6013 32.4703 28.6013C32.4829 28.6013 32.4954 28.6013 32.5079 28.6013C32.5205 28.6013 32.533 28.6013 32.5456 28.6013C32.5581 28.6013 32.5707 28.6013 32.5833 28.6013C32.5958 28.6013 32.6084 28.6013 32.621 28.6013C32.6335 28.6013 32.6461 28.6013 32.6587 28.6013C32.6713 28.6013 32.6839 28.6013 32.6964 28.6013C32.709 28.6013 32.7216 28.6013 32.7342 28.6013C32.7468 28.6013 32.7594 28.6013 32.772 28.6013C32.7846 28.6013 32.7972 28.6013 32.8098 28.6013C32.8224 28.6013 32.835 28.6013 32.8477 28.6013C32.8603 28.6013 32.8729 28.6013 32.8855 28.6013C32.8981 28.6013 32.9108 28.6013 32.9234 28.6013C32.936 28.6013 32.9487 28.6013 32.9613 28.6013C32.9739 28.6013 32.9866 28.6013 32.9992 28.6013C33.0118 28.6013 33.0245 28.6013 33.0371 28.6013C33.0498 28.6013 33.0624 28.6013 33.0751 28.6013C33.0877 28.6013 33.1004 28.6013 33.1131 28.6013C33.1257 28.6013 33.1384 28.6013 33.1511 28.6013C33.1637 28.6013 33.1764 28.6013 33.1891 28.6013C33.2017 28.6013 33.2144 28.6013 33.2271 28.6013C33.2397 28.6013 33.2524 28.6013 33.2651 28.6013C33.2778 28.6013 33.2905 28.6013 33.3032 28.6013C33.3158 28.6013 33.3285 28.6013 33.3412 28.6013C33.3539 28.6013 33.3666 28.6013 33.3793 28.6013C33.392 28.6013 33.4047 28.6013 33.4174 28.6013C33.4301 28.6013 33.4428 28.6013 33.4555 28.6013C33.4682 28.6013 33.4809 28.6013 33.4936 28.6013C33.5063 28.6013 33.519 28.6013 33.5317 28.6013C33.5445 28.6013 33.5572 28.6013 33.5699 28.6013C33.5826 28.6013 33.5953 28.6013 33.608 28.6013C33.6208 28.6013 33.6335 28.6013 33.6462 28.6013C33.6589 28.6013 33.6716 28.6013 33.6844 28.6013C33.6971 28.6013 33.7098 28.6013 33.7226 28.6013C33.7353 28.6013 33.748 28.6013 33.7607 28.6013C33.7735 28.6013 33.7862 28.6013 33.7989 28.6013C33.8117 28.6013 33.8244 28.6013 33.8371 28.6013C33.8499 28.6013 33.8626 28.6013 33.8754 28.6013C33.8881 28.6013 33.9008 28.6013 33.9136 28.6013C33.9263 28.6013 33.939 28.6013 33.9518 28.6013C33.9645 28.6013 33.9773 28.6013 33.99 28.6013C34.0028 28.6013 34.0155 28.6013 34.0282 28.6013C34.041 28.6013 34.0537 28.6013 34.0665 28.6013C34.0792 28.6013 34.092 28.6013 34.1047 28.6013C34.1175 28.6013 34.1302 28.6013 34.143 28.6013C34.1557 28.6013 34.1685 28.6013 34.1812 28.6013C34.194 28.6013 34.2067 28.6013 34.2195 28.6013C34.2322 28.6013 34.245 28.6013 34.2577 28.6013C34.2705 28.6013 34.2832 28.6013 34.296 28.6013C34.3087 28.6013 34.3215 28.6013 34.3342 28.6013C34.347 28.6013 34.3597 28.6013 34.3725 28.6013C34.3852 28.6013 34.398 28.6013 34.4107 28.6013C34.4235 28.6013 34.4362 28.6013 34.449 28.6013C34.4617 28.6013 34.4745 28.6013 34.4872 28.6013C34.5 28.6013 34.5127 28.6013 34.5254 28.6013C34.5382 28.6013 34.5509 28.6013 34.5637 28.6013C34.5764 28.6013 34.5892 28.6013 34.6019 28.6013C34.6147 28.6013 34.6274 28.6013 34.6402 28.6013C34.6529 28.6013 34.6656 28.6013 34.6784 28.6013C34.6911 28.6013 34.7039 28.6013 34.7166 28.6013C34.7294 28.6013 34.7421 28.6013 34.7548 28.6013C34.7676 28.6013 34.7803 28.6013 34.793 28.6013C34.8058 28.6013 34.8185 28.6013 34.8312 28.6013C34.844 28.6013 34.8567 28.6013 34.8694 28.6013C34.8822 28.6013 34.8949 28.6013 34.9076 28.6013C34.9204 28.6013 34.9331 28.6013 34.9458 28.6013C34.9585 28.6013 34.9713 28.6013 34.984 28.6013C34.9967 28.6013 35.0094 28.6013 35.0222 28.6013C35.0349 28.6013 35.0476 28.6013 35.0603 28.6013C35.073 28.6013 35.0857 28.6013 35.0985 28.6013C35.1112 28.6013 35.1239 28.6013 35.1366 28.6013C35.1493 28.6013 35.162 28.6013 35.1747 28.6013C35.1874 28.6013 35.2001 28.6013 35.2128 28.6013C35.2255 28.6013 35.2382 28.6013 35.2509 28.6013C35.2636 28.6013 35.2763 28.6013 35.289 28.6013C35.3017 28.6013 35.3144 28.6013 35.3271 28.6013C35.3398 28.6013 35.3524 28.6013 35.3651 28.6013C35.3778 28.6013 35.3905 28.6013 35.4032 28.6013C35.4158 28.6013 35.4285 28.6013 35.4412 28.6013C35.4539 28.6013 35.4665 28.6013 35.4792 28.6013C35.4919 28.6013 35.5045 28.6013 35.5172 28.6013C35.5299 28.6013 35.5425 28.6013 35.5552 28.6013C35.5678 28.6013 35.5805 28.6013 35.5931 28.6013C35.6058 28.6013 35.6184 28.6013 35.6311 28.6013C35.6437 28.6013 35.6564 28.6013 35.669 28.6013C35.6816 28.6013 35.6943 28.6013 35.7069 28.6013C35.7195 28.6013 35.7322 28.6013 35.7448 28.6013C35.7574 28.6013 35.77 28.6013 35.7827 28.6013C35.7953 28.6013 35.8079 28.6013 35.8205 28.6013C35.8331 28.6013 35.8457 28.6013 35.8583 28.6013C35.8709 28.6013 35.8835 28.6013 35.8961 28.6013C35.9087 28.6013 35.9213 28.6013 35.9339 28.6013C35.9465 28.6013 35.9591 28.6013 35.9717 28.6013C35.9842 28.6013 35.9968 28.6013 36.0094 28.6013C36.022 28.6013 36.0345 28.6013 36.0471 28.6013C36.0597 28.6013 36.0722 28.6013 36.0848 28.6013C36.0973 28.6013 36.1099 28.6013 36.1224 28.6013C36.135 28.6013 36.1475 28.6013 36.1601 28.6013C36.1726 28.6013 36.1852 28.6013 36.1977 28.6013C36.2102 28.6013 36.2227 28.6013 36.2353 28.6013C36.2478 28.6013 36.2603 28.6013 36.2728 28.6013C36.2853 28.6013 36.2978 28.6013 36.3103 28.6013C36.3228 28.6013 36.3353 28.6013 36.3478 28.6013C36.3603 28.6013 36.3728 28.6013 36.3853 28.6013C36.3978 28.6013 36.4103 28.6013 36.4227 28.6013C36.4352 28.6013 36.4477 28.6013 36.4602 28.6013C36.4726 28.6013 36.4851 28.6013 36.4975 28.6013C36.51 28.6013 36.5224 28.6013 36.5349 28.6013C36.5473 28.6013 36.5598 28.6013 36.5722 28.6013C36.5846 28.6013 36.5971 28.6013 36.6095 28.6013C36.6219 28.6013 36.6343 28.6013 36.6467 28.6013C36.6592 28.6013 36.6716 28.6013 36.684 28.6013C36.6964 28.6013 36.7088 28.6013 36.7211 28.6013C36.7335 28.6013 36.7459 28.6013 36.7583 28.6013C36.7707 28.6013 36.7831 28.6013 36.7954 28.6013C36.8078 28.6013 36.8201 28.6013 36.8325 28.6013C36.8449 28.6013 36.8572 28.6013 36.8695 28.6013C36.8819 28.6013 36.8942 28.6013 36.9066 28.6013C36.9189 28.6013 36.9312 28.6013 36.9435 28.6013C36.9558 28.6013 36.9682 28.6013 36.9805 28.6013C36.9928 28.6013 37.0051 28.6013 37.0174 28.6013C37.0297 28.6013 37.0419 28.6013 37.0542 28.6013C37.0665 28.6013 37.0788 28.6013 37.091 28.6013C37.1033 28.6013 37.1156 28.6013 37.1278 28.6013C37.1401 28.6013 37.1523 28.6013 37.1646 28.6013C37.1768 28.6013 37.189 28.6013 37.2013 28.6013C37.2135 28.6013 37.2257 28.6013 37.2379 28.6013C37.2501 28.6013 37.2623 28.6013 37.2745 28.6013C37.2867 28.6013 37.2989 28.6013 37.3111 28.6013C37.3233 28.6013 37.3355 28.6013 37.3477 28.6013C37.3598 28.6013 37.372 28.6013 37.3841 28.6013C37.3963 28.6013 37.4084 28.6013 37.4206 28.6013C37.4327 28.6013 37.4449 28.6013 37.457 28.6013C37.4691 28.6013 37.4812 28.6013 37.4933 28.6013C37.5055 28.6013 37.5176 28.6013 37.5297 28.6013C37.5417 28.6013 37.5538 28.6013 37.5659 28.6013C37.578 28.6013 37.5901 28.6013 37.6021 28.6013C37.6142 28.6013 37.6263 28.6013 37.6383 28.6013C37.6504 28.6013 37.6624 28.6013 37.6744 28.6013C37.6865 28.6013 37.6985 28.6013 37.7105 28.6013C37.7225 28.6013 37.7345 28.6013 37.7465 28.6013C37.7585 28.6013 37.7705 28.6013 37.7825 28.6013C37.7945 28.6013 37.8065 28.6013 37.8184 28.6013C37.8304 28.6013 37.8424 28.6013 37.8543 28.6013C37.8663 28.6013 37.8782 28.6013 37.8901 28.6013C37.9021 28.6013 37.914 28.6013 37.9259 28.6013C37.9378 28.6013 37.9497 28.6013 37.9616 28.6013C37.9735 28.6013 37.9854 28.6013 37.9973 28.6013C38.0092 28.6013 38.0211 28.6013 38.0329 28.6013C38.0448 28.6013 38.0566 28.6013 38.0685 28.6013C38.0803 28.6013 38.0922 28.6013 38.104 28.6013C38.1158 28.6013 38.1276 28.6013 38.1395 28.6013C38.1513 28.6013 38.1631 28.6013 38.1749 28.6013C38.1866 28.6013 38.1984 28.6013 38.2102 28.6013C38.222 28.6013 38.2337 28.6013 38.2455 28.6013C38.2572 28.6013 38.269 28.6013 38.2807 28.6013C38.2925 28.6013 38.3042 28.6013 38.3159 28.6013C38.3276 28.6013 38.3393 28.6013 38.351 28.6013C38.3627 28.6013 38.3744 28.6013 38.3861 28.6013C38.3977 28.6013 38.4094 28.6013 38.4211 28.6013C38.4327 28.6013 38.4444 28.6013 38.456 28.6013C38.4676 28.6013 38.4793 28.6013 38.4909 28.6013C38.5025 28.6013 38.5141 28.6013 38.5257 28.6013C38.5373 28.6013 38.5489 28.6013 38.5605 28.6013C38.572 28.6013 38.5836 28.6013 38.5952 28.6013C38.6067 28.6013 38.6183 28.6013 38.6298 28.6013C38.6413 28.6013 38.6528 28.6013 38.6644 28.6013C38.6759 28.6013 38.6874 28.6013 38.6989 28.6013C38.7104 28.6013 38.7218 28.6013 38.7333 28.6013C38.7448 28.6013 38.7562 28.6013 38.7677 28.6013C38.7791 28.6013 38.7906 28.6013 38.802 28.6013C38.8134 28.6013 38.8249 28.6013 38.8363 28.6013C38.8477 28.6013 38.8591 28.6013 38.8704 28.6013C38.8818 28.6013 38.8932 28.6013 38.9046 28.6013C38.9159 28.6013 38.9273 28.6013 38.9386 28.6013C38.9499 28.6013 38.9613 28.6013 38.9726 28.6013C38.9839 28.6013 38.9952 28.6013 39.0065 28.6013C39.0178 28.6013 39.0291 28.6013 39.0404 28.6013C39.0516 28.6013 39.0629 28.6013 39.0741 28.6013C39.0854 28.6013 39.0966 28.6013 39.1078 28.6013C39.1191 28.6013 39.1303 28.6013 39.1415 28.6013C39.1527 28.6013 39.1639 28.6013 39.175 28.6013C39.1862 28.6013 39.1974 28.6013 39.2085 28.6013C39.2197 28.6013 39.2308 28.6013 39.242 28.6013C39.2531 28.6013 39.2642 28.6013 39.2753 28.6013V26.6013ZM58 20.3464V21.5556H60V20.3464H58ZM59 20.5556H55.0081V22.5556H59V20.5556ZM54.0081 21.5556V24.2157H56.0081V21.5556H54.0081ZM54.2907 24.9123L55.6996 26.3633L57.1344 24.97L55.7255 23.5191L54.2907 24.9123ZM58 21.5556V25.6667H60V21.5556H58ZM58 25.6667V32.1961H60V25.6667H58ZM56.417 26.6667H59V24.6667H56.417V26.6667ZM21.3684 32.1961C21.3684 34.8772 19.2654 37 16.7328 37V39C20.4251 39 23.3684 35.9258 23.3684 32.1961H21.3684ZM16.7328 37C14.2001 37 12.0972 34.8772 12.0972 32.1961H10.0972C10.0972 35.9258 13.0405 39 16.7328 39V37ZM12.0972 32.1961C12.0972 29.515 14.2001 27.3922 16.7328 27.3922V25.3922C13.0405 25.3922 10.0972 28.4663 10.0972 32.1961H12.0972ZM16.7328 27.3922C19.2654 27.3922 21.3684 29.515 21.3684 32.1961H23.3684C23.3684 28.4663 20.4251 25.3922 16.7328 25.3922V27.3922ZM55.417 32.1961C55.417 34.8772 53.314 37 50.7814 37V39C54.4737 39 57.417 35.9258 57.417 32.1961H55.417ZM50.7814 37C48.2487 37 46.1457 34.8772 46.1457 32.1961H44.1457C44.1457 35.9258 47.0891 39 50.7814 39V37ZM46.1457 32.1961C46.1457 29.515 48.2487 27.3922 50.7814 27.3922V25.3922C47.0891 25.3922 44.1457 28.4663 44.1457 32.1961H46.1457ZM50.7814 27.3922C53.314 27.3922 55.417 29.515 55.417 32.1961H57.417C57.417 28.4663 54.4737 25.3922 50.7814 25.3922V27.3922Z" fill="#029080"/>
</svg>
