<svg width="50" height="50" viewBox="0 0 50 50" fill="none" xmlns="http://www.w3.org/2000/svg">
<path d="M18.7562 12.5001C18.7562 10.8442 19.4141 9.25603 20.585 8.0851C21.7559 6.91417 23.3441 6.25635 25 6.25635C26.6559 6.25635 28.2441 6.91417 29.415 8.0851C30.5859 9.25603 31.2437 10.8442 31.2437 12.5001C31.2437 14.156 30.5859 15.7442 29.415 16.9151C28.2441 18.086 26.6559 18.7438 25 18.7438C23.3441 18.7438 21.7559 18.086 20.585 16.9151C19.4141 15.7442 18.7562 14.156 18.7562 12.5001ZM25 9.38135C24.5904 9.38135 24.1849 9.46202 23.8065 9.61875C23.4281 9.77548 23.0843 10.0052 22.7947 10.2948C22.5051 10.5844 22.2754 10.9282 22.1187 11.3066C21.9619 11.685 21.8813 12.0905 21.8813 12.5001C21.8813 12.9097 21.9619 13.3152 22.1187 13.6936C22.2754 14.072 22.5051 14.4158 22.7947 14.7054C23.0843 14.995 23.4281 15.2247 23.8065 15.3814C24.1849 15.5382 24.5904 15.6188 25 15.6188C25.8271 15.6188 26.6204 15.2903 27.2053 14.7054C27.7902 14.1205 28.1187 13.3272 28.1187 12.5001C28.1187 11.673 27.7902 10.8797 27.2053 10.2948C26.6204 9.70993 25.8271 9.38135 25 9.38135ZM34.375 14.0626C34.375 13.447 34.4962 12.8375 34.7318 12.2688C34.9674 11.7001 35.3127 11.1833 35.7479 10.748C36.1832 10.3128 36.7 9.96748 37.2687 9.73191C37.8374 9.49634 38.4469 9.3751 39.0625 9.3751C39.6781 9.3751 40.2876 9.49634 40.8563 9.73191C41.425 9.96748 41.9418 10.3128 42.3771 10.748C42.8123 11.1833 43.1576 11.7001 43.3932 12.2688C43.6288 12.8375 43.75 13.447 43.75 14.0626C43.75 15.3058 43.2561 16.4981 42.3771 17.3772C41.498 18.2562 40.3057 18.7501 39.0625 18.7501C37.8193 18.7501 36.627 18.2562 35.7479 17.3772C34.8689 16.4981 34.375 15.3058 34.375 14.0626ZM39.0625 12.5001C38.6481 12.5001 38.2507 12.6647 37.9576 12.9577C37.6646 13.2508 37.5 13.6482 37.5 14.0626C37.5 14.477 37.6646 14.8744 37.9576 15.1675C38.2507 15.4605 38.6481 15.6251 39.0625 15.6251C39.4769 15.6251 39.8743 15.4605 40.1674 15.1675C40.4604 14.8744 40.625 14.477 40.625 14.0626C40.625 13.6482 40.4604 13.2508 40.1674 12.9577C39.8743 12.6647 39.4769 12.5001 39.0625 12.5001ZM10.9375 9.3751C9.6943 9.3751 8.50201 9.86896 7.62294 10.748C6.74386 11.6271 6.25 12.8194 6.25 14.0626C6.25 15.3058 6.74386 16.4981 7.62294 17.3772C8.50201 18.2562 9.6943 18.7501 10.9375 18.7501C12.1807 18.7501 13.373 18.2562 14.2521 17.3772C15.1311 16.4981 15.625 15.3058 15.625 14.0626C15.625 12.8194 15.1311 11.6271 14.2521 10.748C13.373 9.86896 12.1807 9.3751 10.9375 9.3751ZM9.375 14.0626C9.375 13.6482 9.53962 13.2508 9.83265 12.9577C10.1257 12.6647 10.5231 12.5001 10.9375 12.5001C11.3519 12.5001 11.7493 12.6647 12.0424 12.9577C12.3354 13.2508 12.5 13.6482 12.5 14.0626C12.5 14.477 12.3354 14.8744 12.0424 15.1675C11.7493 15.4605 11.3519 15.6251 10.9375 15.6251C10.5231 15.6251 10.1257 15.4605 9.83265 15.1675C9.53962 14.8744 9.375 14.477 9.375 14.0626ZM13.3375 21.8751C12.7889 22.8252 12.5 23.903 12.5 25.0001H6.25V32.8126C6.24975 33.5899 6.4428 34.3551 6.81177 35.0392C7.18075 35.7234 7.71406 36.305 8.36371 36.7318C9.01336 37.1586 9.75895 37.4172 10.5334 37.4842C11.3078 37.5512 12.0867 37.4246 12.8 37.1157C13.0313 38.1501 13.3938 39.1376 13.8625 40.0595C12.6765 40.5384 11.391 40.7187 10.1189 40.5847C8.84689 40.4507 7.62721 40.0064 6.56701 39.2908C5.5068 38.5753 4.6385 37.6104 4.03835 36.4808C3.43821 35.3513 3.12457 34.0917 3.125 32.8126V25.0001C3.125 24.1713 3.45424 23.3764 4.04029 22.7904C4.62634 22.2043 5.4212 21.8751 6.25 21.8751H13.3375ZM36.1375 40.0595C37.3235 40.5384 38.609 40.7187 39.8811 40.5847C41.1531 40.4507 42.3728 40.0064 43.433 39.2908C44.4932 38.5753 45.3615 37.6104 45.9616 36.4808C46.5618 35.3513 46.8754 34.0917 46.875 32.8126V25.0001C46.875 24.1713 46.5458 23.3764 45.9597 22.7904C45.3737 22.2043 44.5788 21.8751 43.75 21.8751H36.6625C37.1938 22.7938 37.5 23.8595 37.5 25.0001H43.75V32.8126C43.7503 33.5899 43.5572 34.3551 43.1882 35.0392C42.8193 35.7234 42.2859 36.305 41.6363 36.7318C40.9866 37.1586 40.2411 37.4172 39.4666 37.4842C38.6922 37.5512 37.9133 37.4246 37.2 37.1157C36.9625 38.1532 36.6083 39.1345 36.1375 40.0595ZM18.75 21.872C17.9212 21.872 17.1263 22.2012 16.5403 22.7873C15.9542 23.3733 15.625 24.1682 15.625 24.997V34.3751C15.625 36.8615 16.6127 39.2461 18.3709 41.0042C20.129 42.7624 22.5136 43.7501 25 43.7501C27.4864 43.7501 29.871 42.7624 31.6291 41.0042C33.3873 39.2461 34.375 36.8615 34.375 34.3751V25.0001C34.375 24.1713 34.0458 23.3764 33.4597 22.7904C32.8737 22.2043 32.0788 21.8751 31.25 21.8751L18.75 21.872ZM18.75 24.997H31.25V34.3751C31.25 36.0327 30.5915 37.6224 29.4194 38.7945C28.2473 39.9666 26.6576 40.6251 25 40.6251C23.3424 40.6251 21.7527 39.9666 20.5806 38.7945C19.4085 37.6224 18.75 36.0327 18.75 34.3751V24.997Z" fill="#029080"/>
</svg>
