<svg width="58" height="58" viewBox="0 0 58 58" fill="none" xmlns="http://www.w3.org/2000/svg">
<path d="M41.083 28.9998H48.333C49.6149 28.9998 50.8443 29.5091 51.7507 30.4155C52.6571 31.3219 53.1663 32.5513 53.1663 33.8332V41.0832C53.1663 42.3651 52.6571 43.5944 51.7507 44.5009C50.8443 45.4073 49.6149 45.9165 48.333 45.9165H41.083C39.8011 45.9165 38.5718 45.4073 37.6653 44.5009C36.7589 43.5944 36.2497 42.3651 36.2497 41.0832V33.8332C36.2497 32.5513 36.7589 31.3219 37.6653 30.4155C38.5718 29.5091 39.8011 28.9998 41.083 28.9998ZM41.083 33.8332V41.0832H48.333V33.8332H41.083ZM4.83301 16.9165H16.9163C18.1982 16.9165 19.4276 17.4257 20.334 18.3322C21.2404 19.2386 21.7497 20.468 21.7497 21.7498V26.5832C21.7497 27.8651 21.2404 29.0944 20.334 30.0009C19.4276 30.9073 18.1982 31.4165 16.9163 31.4165C18.1982 31.4165 19.4276 31.9257 20.334 32.8322C21.2404 33.7386 21.7497 34.968 21.7497 36.2498V41.0832C21.7497 42.3651 21.2404 43.5944 20.334 44.5009C19.4276 45.4073 18.1982 45.9165 16.9163 45.9165H4.83301V16.9165ZM9.66634 21.7498V28.9998H16.9163V21.7498H9.66634ZM9.66634 41.0832H16.9163V33.8332H9.66634V41.0832ZM26.583 31.4165H31.4163V45.9165H26.583V31.4165ZM26.583 21.7498H31.4163V26.5832H26.583V21.7498Z" fill="#029080"/>
</svg>
