<svg width="50" height="40" viewBox="0 0 50 40" fill="none" xmlns="http://www.w3.org/2000/svg">
<g clip-path="url(#clip0_18_87)">
<path d="M0 3.75C0 1.67969 1.67969 0 3.75 0H26.25C28.3203 0 30 1.67969 30 3.75V36.25C30 38.3203 28.3203 40 26.25 40H18.75V33.75C18.75 31.6797 17.0703 30 15 30C12.9297 30 11.25 31.6797 11.25 33.75V40H3.75C1.67969 40 0 38.3203 0 36.25V3.75ZM6.25 17.5C5.5625 17.5 5 18.0625 5 18.75V21.25C5 21.9375 5.5625 22.5 6.25 22.5H8.75C9.4375 22.5 10 21.9375 10 21.25V18.75C10 18.0625 9.4375 17.5 8.75 17.5H6.25ZM12.5 18.75V21.25C12.5 21.9375 13.0625 22.5 13.75 22.5H16.25C16.9375 22.5 17.5 21.9375 17.5 21.25V18.75C17.5 18.0625 16.9375 17.5 16.25 17.5H13.75C13.0625 17.5 12.5 18.0625 12.5 18.75ZM21.25 17.5C20.5625 17.5 20 18.0625 20 18.75V21.25C20 21.9375 20.5625 22.5 21.25 22.5H23.75C24.4375 22.5 25 21.9375 25 21.25V18.75C25 18.0625 24.4375 17.5 23.75 17.5H21.25ZM5 8.75V11.25C5 11.9375 5.5625 12.5 6.25 12.5H8.75C9.4375 12.5 10 11.9375 10 11.25V8.75C10 8.0625 9.4375 7.5 8.75 7.5H6.25C5.5625 7.5 5 8.0625 5 8.75ZM13.75 7.5C13.0625 7.5 12.5 8.0625 12.5 8.75V11.25C12.5 11.9375 13.0625 12.5 13.75 12.5H16.25C16.9375 12.5 17.5 11.9375 17.5 11.25V8.75C17.5 8.0625 16.9375 7.5 16.25 7.5H13.75ZM20 8.75V11.25C20 11.9375 20.5625 12.5 21.25 12.5H23.75C24.4375 12.5 25 11.9375 25 11.25V8.75C25 8.0625 24.4375 7.5 23.75 7.5H21.25C20.5625 7.5 20 8.0625 20 8.75ZM50 15V16.25C50 19.7031 47.2031 22.5 43.75 22.5H42.5V21.25C42.5 17.7969 45.2969 15 48.75 15H50ZM50 25C50 28.4531 47.2031 31.25 43.75 31.25H42.5V30C42.5 26.5469 45.2969 23.75 48.75 23.75H50V25ZM50 33.75C50 37.2031 47.2031 40 43.75 40H42.5V38.75C42.5 35.2969 45.2969 32.5 48.75 32.5H50V33.75ZM40 38.75V40H38.75C35.2969 40 32.5 37.2031 32.5 33.75V32.5H33.75C37.2031 32.5 40 35.2969 40 38.75ZM40 31.25H38.75C35.2969 31.25 32.5 28.4531 32.5 25V23.75H33.75C37.2031 23.75 40 26.5469 40 30V31.25ZM40 21.25V22.5H38.75C35.2969 22.5 32.5 19.7031 32.5 16.25V15H33.75C37.2031 15 40 17.7969 40 21.25ZM41.25 2.5C42.2891 2.5 43.125 3.33594 43.125 4.375V12.5C43.125 13.5391 42.2891 14.375 41.25 14.375C40.2109 14.375 39.375 13.5391 39.375 12.5V4.375C39.375 3.33594 40.2109 2.5 41.25 2.5ZM48.75 7.5V10C48.75 11.0391 47.9141 11.875 46.875 11.875C45.8359 11.875 45 11.0391 45 10V7.5C45 6.46094 45.8359 5.625 46.875 5.625C47.9141 5.625 48.75 6.46094 48.75 7.5ZM35.625 5.625C36.6641 5.625 37.5 6.46094 37.5 7.5V10C37.5 11.0391 36.6641 11.875 35.625 11.875C34.5859 11.875 33.75 11.0391 33.75 10V7.5C33.75 6.46094 34.5859 5.625 35.625 5.625Z" fill="#029080"/>
</g>
<defs>
<clipPath id="clip0_18_87">
<rect width="50" height="40" fill="white"/>
</clipPath>
</defs>
</svg>
