<svg width="244" height="107" viewBox="0 0 244 107" fill="none" xmlns="http://www.w3.org/2000/svg">
<g clip-path="url(#clip0_85_1526)">
<path d="M171.726 94.3832H166.914V92.0812H179.235V94.3832H174.423V106.73H171.726V94.3832Z" fill="white"/>
<path d="M158.125 106.73L155.158 102.44C155.034 102.454 154.847 102.461 154.598 102.461H151.321V106.73H148.624V92.0812H154.598C155.857 92.0812 156.949 92.2905 157.876 92.709C158.816 93.1276 159.535 93.7275 160.033 94.5088C160.531 95.2901 160.78 96.2179 160.78 97.2921C160.78 98.3943 160.51 99.343 159.971 100.138C159.445 100.934 158.685 101.526 157.689 101.917L161.029 106.73H158.125ZM158.062 97.2921C158.062 96.3574 157.758 95.6389 157.15 95.1366C156.541 94.6343 155.649 94.3832 154.474 94.3832H151.321V100.222H154.474C155.649 100.222 156.541 99.9709 157.15 99.4686C157.758 98.9524 158.062 98.2269 158.062 97.2921Z" fill="white"/>
<path d="M132.759 106.94C131.279 106.94 129.945 106.619 128.755 105.977C127.566 105.321 126.633 104.421 125.955 103.277C125.277 102.119 124.938 100.829 124.938 99.4059C124.938 97.9828 125.277 96.6992 125.955 95.5552C126.633 94.3972 127.566 93.4973 128.755 92.8555C129.945 92.1998 131.279 91.8719 132.759 91.8719C134.239 91.8719 135.573 92.1998 136.762 92.8555C137.952 93.4973 138.885 94.3902 139.563 95.5343C140.24 96.6783 140.579 97.9688 140.579 99.4059C140.579 100.843 140.24 102.133 139.563 103.277C138.885 104.421 137.952 105.321 136.762 105.977C135.573 106.619 134.239 106.94 132.759 106.94ZM132.759 104.554C133.727 104.554 134.598 104.338 135.373 103.905C136.147 103.459 136.755 102.845 137.198 102.064C137.641 101.268 137.862 100.382 137.862 99.4059C137.862 98.4292 137.641 97.5503 137.198 96.769C136.755 95.9737 136.147 95.3599 135.373 94.9274C134.598 94.4809 133.727 94.2577 132.759 94.2577C131.791 94.2577 130.92 94.4809 130.145 94.9274C129.371 95.3599 128.762 95.9737 128.32 96.769C127.877 97.5503 127.656 98.4292 127.656 99.4059C127.656 100.382 127.877 101.268 128.32 102.064C128.762 102.845 129.371 103.459 130.145 103.905C130.92 104.338 131.791 104.554 132.759 104.554Z" fill="white"/>
<path d="M111.713 92.0812C112.971 92.0812 114.064 92.2905 114.99 92.709C115.931 93.1276 116.65 93.7275 117.148 94.5088C117.646 95.2901 117.895 96.2179 117.895 97.2921C117.895 98.3525 117.646 99.2802 117.148 100.075C116.65 100.857 115.931 101.457 114.99 101.875C114.064 102.294 112.971 102.503 111.713 102.503H108.435V106.73H105.739V92.0812H111.713ZM111.589 100.201C112.764 100.201 113.656 99.9499 114.264 99.4477C114.873 98.9454 115.177 98.2269 115.177 97.2921C115.177 96.3574 114.873 95.6389 114.264 95.1366C113.656 94.6343 112.764 94.3832 111.589 94.3832H108.435V100.201H111.589Z" fill="white"/>
<path d="M95.8038 106.73L91.8625 101.164L87.9626 106.73H84.8926L90.286 99.2593L85.183 92.0812H88.2323L91.9454 97.2921L95.6171 92.0812H98.542L93.4597 99.1547L98.9153 106.73H95.8038Z" fill="white"/>
<path d="M78.6258 104.449V106.73H67.7354V92.0812H78.3354V94.3623H70.432V98.1711H77.4434V100.41H70.432V104.449H78.6258Z" fill="white"/>
<path d="M172.227 81.6175V58.7875H181.994C183.674 58.7875 185.144 59.0959 186.403 59.7127C187.663 60.3295 188.643 61.2176 189.342 62.377C190.042 63.5363 190.392 64.926 190.392 66.5461C190.392 68.1811 190.031 69.5597 189.309 70.6818C188.595 71.804 187.589 72.6512 186.293 73.2235C185.004 73.7957 183.497 74.0818 181.773 74.0818H175.939V69.2661H180.536C181.258 69.2661 181.873 69.1769 182.381 68.9986C182.897 68.8128 183.291 68.5192 183.563 68.1179C183.843 67.7166 183.983 67.1927 183.983 66.5461C183.983 65.8921 183.843 65.3608 183.563 64.952C183.291 64.5359 182.897 64.2312 182.381 64.0379C181.873 63.8373 181.258 63.737 180.536 63.737H178.37V81.6175H172.227ZM185.486 71.1389L191.143 81.6175H184.469L178.945 71.1389H185.486Z" fill="white"/>
<path d="M150.539 81.6175H143.91L151.379 58.7875H159.777L167.246 81.6175H160.617L155.666 65.0747H155.49L150.539 81.6175ZM149.302 72.6103H161.766V77.2477H149.302V72.6103Z" fill="white"/>
<path d="M119.45 58.7875H126.3L130.72 68.0622H130.897L135.317 58.7875H142.168L133.858 74.4385V81.6175H127.759V74.4385L119.45 58.7875Z" fill="white"/>
<path d="M103.904 81.6175V58.7875H110.048V76.6234H119.197V81.6175H103.904Z" fill="white"/>
<path d="M98.2617 70.2024C98.2617 72.744 97.7719 74.888 96.7921 76.6345C95.8124 78.3735 94.4901 79.6926 92.8253 80.5918C91.1605 81.4836 89.3042 81.9295 87.2564 81.9295C85.1938 81.9295 83.3301 81.4799 81.6653 80.5807C80.0078 79.674 78.6892 78.3512 77.7095 76.6122C76.7372 74.8657 76.251 72.7291 76.251 70.2024C76.251 67.6607 76.7372 65.5204 77.7095 63.7814C78.6892 62.035 80.0078 60.7159 81.6653 59.8241C83.3301 58.9248 85.1938 58.4752 87.2564 58.4752C89.3042 58.4752 91.1605 58.9248 92.8253 59.8241C94.4901 60.7159 95.8124 62.035 96.7921 63.7814C97.7719 65.5204 98.2617 67.6607 98.2617 70.2024ZM91.9414 70.2024C91.9414 68.8349 91.7609 67.683 91.3999 66.7466C91.0464 65.8028 90.5197 65.0894 89.8199 64.6063C89.1274 64.1158 88.2729 63.8706 87.2564 63.8706C86.2398 63.8706 85.3816 64.1158 84.6818 64.6063C83.9894 65.0894 83.4627 65.8028 83.1017 66.7466C82.7481 67.683 82.5713 68.8349 82.5713 70.2024C82.5713 71.5698 82.7481 72.7254 83.1017 73.6692C83.4627 74.6056 83.9894 75.3191 84.6818 75.8095C85.3816 76.2926 86.2398 76.5341 87.2564 76.5341C88.2729 76.5341 89.1274 76.2926 89.8199 75.8095C90.5197 75.3191 91.0464 74.6056 91.3999 73.6692C91.7609 72.7254 91.9414 71.5698 91.9414 70.2024Z" fill="white"/>
<path d="M52.7236 81.6175V58.7875H58.8672V68.0176H59.1766L65.9831 58.7875H73.1432L65.4969 68.954L73.32 81.6175H65.9831L60.9003 73.0562L58.8672 75.7316V81.6175H52.7236Z" fill="white"/>
<path d="M184.576 9.84755C182.553 8.93308 180.311 7.99934 177.802 7.03674L177.869 28.676C177.869 31.2462 178.546 33.7874 179.872 35.9918C182.429 40.2465 188.24 46.436 201.417 51.8362C200.968 40.6219 197.276 25.6246 184.576 9.84755Z" fill="url(#paint0_linear_85_1526)"/>
<path d="M202.056 46.2434C202.266 40.5352 202.447 32.0258 201.961 27.7807C201.216 21.2735 198.173 16.4028 186.799 10.8871C196.694 23.7859 200.749 36.1169 202.056 46.2434Z" fill="url(#paint1_linear_85_1526)"/>
<path d="M229.574 32.0737C235.146 28.7528 240.499 27.1548 244.153 26.3848L244.067 1.46301C240.06 3.11869 231.921 7.10387 224.316 14.7469C214.918 24.1997 204.518 41.2954 207.208 69.49C209.794 48.0818 220.729 37.3295 229.564 32.0641L229.574 32.0737Z" fill="url(#paint2_linear_85_1526)"/>
<path d="M223.581 13.9288C231.557 5.92 240.126 1.84819 244.076 0.269527V0C244.076 0 216.272 10.8966 208.696 26.8469C207.522 29.3208 206.94 32.0354 206.893 34.7788L206.664 48.0434C209.278 31.7947 216.692 20.8499 223.59 13.9288H223.581Z" fill="url(#paint3_linear_85_1526)"/>
<path d="M230.098 33.0556C221.396 38.2537 210.596 48.9482 208.239 70.3949C213.363 68.7489 227.36 63.3968 237.283 51.345C241.787 45.8871 244.201 38.9852 244.182 31.9005L244.162 27.5399C240.575 28.31 235.403 29.8887 230.098 33.0556Z" fill="url(#paint4_linear_85_1526)"/>
</g>
<defs>
<linearGradient id="paint0_linear_85_1526" x1="195.587" y1="45.8488" x2="175.646" y2="10.2085" gradientUnits="userSpaceOnUse">
<stop stop-color="#1D6771"/>
<stop offset="0.53" stop-color="#199288"/>
<stop offset="1" stop-color="#32A299"/>
</linearGradient>
<linearGradient id="paint1_linear_85_1526" x1="203.573" y1="38.4079" x2="188.487" y2="11.4428" gradientUnits="userSpaceOnUse">
<stop stop-color="#1D6771"/>
<stop offset="0.53" stop-color="#199288"/>
<stop offset="1" stop-color="#32A299"/>
</linearGradient>
<linearGradient id="paint2_linear_85_1526" x1="225.48" y1="69.4996" x2="225.48" y2="1.47264" gradientUnits="userSpaceOnUse">
<stop stop-color="#1D6771"/>
<stop offset="0.53" stop-color="#199288"/>
<stop offset="1" stop-color="#32A299"/>
</linearGradient>
<linearGradient id="paint3_linear_85_1526" x1="225.365" y1="48.0434" x2="225.365" y2="0" gradientUnits="userSpaceOnUse">
<stop stop-color="#1D6771"/>
<stop offset="0.53" stop-color="#199288"/>
<stop offset="1" stop-color="#32A299"/>
</linearGradient>
<linearGradient id="paint4_linear_85_1526" x1="226.205" y1="70.3949" x2="226.205" y2="27.5495" gradientUnits="userSpaceOnUse">
<stop stop-color="#1D6771"/>
<stop offset="0.53" stop-color="#199288"/>
<stop offset="1" stop-color="#32A299"/>
</linearGradient>
<clipPath id="clip0_85_1526">
<rect width="244" height="107" fill="white"/>
</clipPath>
</defs>
</svg>
