<svg width="22" height="22" viewBox="0 0 22 22" fill="none" xmlns="http://www.w3.org/2000/svg">
<path fill-rule="evenodd" clip-rule="evenodd" d="M11.4587 1.8335C15.7549 1.8335 19.2503 5.33939 19.2503 9.64914C19.2503 14.947 13.153 20.1668 11.4587 20.1668C9.76433 20.1668 3.66699 14.947 3.66699 9.64914C3.66699 5.33939 7.16238 1.8335 11.4587 1.8335ZM11.4587 3.24375C7.94344 3.24375 5.08366 6.11785 5.08366 9.64914C5.08366 14.1422 10.3952 18.5196 11.4587 18.7528C12.5221 18.5187 17.8337 14.1413 17.8337 9.64914C17.8337 6.11785 14.9739 3.24375 11.4587 3.24375ZM11.4596 6.53435C13.152 6.53435 14.529 7.90512 14.529 9.59085C14.529 11.2756 13.152 12.6455 11.4596 12.6455C9.76716 12.6455 8.39016 11.2756 8.39016 9.59085C8.39016 7.90512 9.76716 6.53435 11.4596 6.53435ZM11.4596 7.94461C10.5482 7.94461 9.80683 8.68264 9.80683 9.59085C9.80683 10.4981 10.5482 11.2352 11.4596 11.2352C12.371 11.2352 13.1124 10.4981 13.1124 9.59085C13.1124 8.68264 12.371 7.94461 11.4596 7.94461Z" fill="#029080"/>
</svg>
