<svg width="50" height="53" viewBox="0 0 50 53" fill="none" xmlns="http://www.w3.org/2000/svg">
<path d="M5.10283 7.35254C3.57917 6.66977 1.8902 5.97261 0 5.25391L0.0503148 21.4105C0.0503148 23.3294 0.560602 25.2268 1.55961 26.8726C3.48574 30.0493 7.86267 34.6706 17.788 38.7026C17.4502 30.3296 14.6688 19.1322 5.10283 7.35254Z" fill="url(#paint0_linear_25_1881)"/>
<path d="M18.2695 34.5268C18.4276 30.2649 18.5642 23.9115 18.1976 20.742C17.637 15.8835 15.3443 12.2469 6.77734 8.12866C14.2303 17.7594 17.2849 26.966 18.2695 34.5268Z" fill="url(#paint1_linear_25_1881)"/>
<path d="M38.9977 23.9472C43.195 21.4677 47.2269 20.2746 49.9796 19.6996L49.9149 1.09229C46.8963 2.32846 40.7657 5.30393 35.0376 11.0105C27.9584 18.0682 20.1244 30.8324 22.1512 51.8834C24.0989 35.8993 32.3353 27.8714 38.9905 23.94L38.9977 23.9472Z" fill="url(#paint2_linear_25_1881)"/>
<path d="M34.4829 10.3997C40.4913 4.42006 46.9453 1.37992 49.9208 0.201237V0C49.9208 0 28.9776 8.13576 23.2711 20.0448C22.3871 21.8918 21.9487 23.9186 21.9127 25.9669L21.7402 35.8707C23.7095 23.7389 29.2938 15.5672 34.4901 10.3997H34.4829Z" fill="url(#paint3_linear_25_1881)"/>
<path d="M39.3924 24.6805C32.8377 28.5615 24.702 36.5463 22.9268 52.5592C26.7862 51.3302 37.3297 47.3341 44.8042 38.3359C48.1965 34.2608 50.0149 29.1077 50.0005 23.818L49.9861 20.5623C47.2838 21.1372 43.3884 22.3159 39.3924 24.6805Z" fill="url(#paint4_linear_25_1881)"/>
<defs>
<linearGradient id="paint0_linear_25_1881" x1="13.3967" y1="34.2322" x2="-1.42305" y2="7.51065" gradientUnits="userSpaceOnUse">
<stop stop-color="#1D6771"/>
<stop offset="0.53" stop-color="#199288"/>
<stop offset="1" stop-color="#32A299"/>
</linearGradient>
<linearGradient id="paint1_linear_25_1881" x1="19.4122" y1="28.6765" x2="8.2004" y2="8.45926" gradientUnits="userSpaceOnUse">
<stop stop-color="#1D6771"/>
<stop offset="0.53" stop-color="#199288"/>
<stop offset="1" stop-color="#32A299"/>
</linearGradient>
<linearGradient id="paint2_linear_25_1881" x1="35.9145" y1="51.8906" x2="35.9145" y2="1.09947" gradientUnits="userSpaceOnUse">
<stop stop-color="#1D6771"/>
<stop offset="0.53" stop-color="#199288"/>
<stop offset="1" stop-color="#32A299"/>
</linearGradient>
<linearGradient id="paint3_linear_25_1881" x1="35.8269" y1="35.8707" x2="35.8269" y2="0" gradientUnits="userSpaceOnUse">
<stop stop-color="#1D6771"/>
<stop offset="0.53" stop-color="#199288"/>
<stop offset="1" stop-color="#32A299"/>
</linearGradient>
<linearGradient id="paint4_linear_25_1881" x1="36.46" y1="52.5592" x2="36.46" y2="20.5694" gradientUnits="userSpaceOnUse">
<stop stop-color="#1D6771"/>
<stop offset="0.53" stop-color="#199288"/>
<stop offset="1" stop-color="#32A299"/>
</linearGradient>
</defs>
</svg>
