<svg width="50" height="53" viewBox="0 0 50 53" fill="none" xmlns="http://www.w3.org/2000/svg">
<path d="M5.10283 7.35242C3.57917 6.66965 1.8902 5.97249 0 5.25378L0.0503148 21.4103C0.0503148 23.3293 0.560602 25.2267 1.55961 26.8725C3.48574 30.0492 7.86267 34.6705 17.788 38.7025C17.4502 30.3295 14.6688 19.132 5.10283 7.35242Z" fill="white"/>
<path d="M18.269 34.5267C18.4271 30.2648 18.5637 23.9114 18.1971 20.7419C17.6365 15.8834 15.3439 12.2467 6.77686 8.12854C14.2299 17.7592 17.2844 26.9659 18.269 34.5267Z" fill="white"/>
<path d="M38.9967 23.9472C43.194 21.4677 47.226 20.2746 49.9786 19.6996L49.9139 1.09229C46.8954 2.32846 40.7648 5.30393 35.0367 11.0105C27.9574 18.0682 20.1235 30.8324 22.1502 51.8834C24.0979 35.8993 32.3343 27.8714 38.9896 23.94L38.9967 23.9472Z" fill="white"/>
<path d="M34.4824 10.3996C40.4908 4.42 46.9448 1.37986 49.9203 0.201176V-6.10352e-05C49.9203 -6.10352e-05 28.9771 8.1357 23.2706 20.0447C22.3866 21.8918 21.9482 23.9185 21.9122 25.9669L21.7397 35.8707C23.709 23.7389 29.2934 15.5672 34.4896 10.3996H34.4824Z" fill="white"/>
<path d="M39.3919 24.6803C32.8373 28.5614 24.7015 36.5462 22.9263 52.559C26.7857 51.33 37.3292 47.334 44.8037 38.3358C48.1961 34.2607 50.0144 29.1076 50 23.8179L49.9856 20.5621C47.2833 21.1371 43.3879 22.3158 39.3919 24.6803Z" fill="white"/>
</svg>
