<svg width="209" height="116" viewBox="0 0 209 116" fill="none" xmlns="http://www.w3.org/2000/svg">
<path d="M129.906 102.126H124.652V99.6353H138.103V102.126H132.85V115.486H129.906V102.126Z" fill="#4F4E4C"/>
<path d="M115.058 115.486L111.82 110.844C111.684 110.859 111.48 110.867 111.209 110.867H107.631V115.486H104.687V99.6353H111.209C112.582 99.6353 113.775 99.8617 114.786 100.315C115.813 100.767 116.598 101.417 117.141 102.262C117.685 103.107 117.957 104.111 117.957 105.274C117.957 106.466 117.662 107.493 117.073 108.353C116.5 109.214 115.67 109.855 114.583 110.278L118.228 115.486H115.058ZM114.99 105.274C114.99 104.262 114.658 103.485 113.994 102.941C113.33 102.398 112.356 102.126 111.073 102.126H107.631V108.444H111.073C112.356 108.444 113.33 108.172 113.994 107.629C114.658 107.07 114.99 106.285 114.99 105.274Z" fill="#4F4E4C"/>
<path d="M87.3685 115.713C85.7532 115.713 84.2964 115.365 82.9981 114.671C81.6998 113.961 80.6808 112.988 79.9411 111.75C79.2014 110.497 78.8315 109.1 78.8315 107.561C78.8315 106.021 79.2014 104.632 79.9411 103.394C80.6808 102.141 81.6998 101.167 82.9981 100.473C84.2964 99.7635 85.7532 99.4087 87.3685 99.4087C88.9838 99.4087 90.4405 99.7635 91.7388 100.473C93.0371 101.167 94.0561 102.134 94.7958 103.371C95.5355 104.609 95.9054 106.006 95.9054 107.561C95.9054 109.116 95.5355 110.512 94.7958 111.75C94.0561 112.988 93.0371 113.961 91.7388 114.671C90.4405 115.365 88.9838 115.713 87.3685 115.713ZM87.3685 113.131C88.4252 113.131 89.3763 112.897 90.2217 112.429C91.067 111.946 91.7313 111.282 92.2144 110.436C92.6974 109.576 92.939 108.617 92.939 107.561C92.939 106.504 92.6974 105.553 92.2144 104.707C91.7313 103.847 91.067 103.183 90.2217 102.715C89.3763 102.232 88.4252 101.99 87.3685 101.99C86.3117 101.99 85.3607 102.232 84.5153 102.715C83.6699 103.183 83.0056 103.847 82.5226 104.707C82.0395 105.553 81.798 106.504 81.798 107.561C81.798 108.617 82.0395 109.576 82.5226 110.436C83.0056 111.282 83.6699 111.946 84.5153 112.429C85.3607 112.897 86.3117 113.131 87.3685 113.131Z" fill="#4F4E4C"/>
<path d="M64.3941 99.6353C65.7679 99.6353 66.9605 99.8617 67.9719 100.315C68.9985 100.767 69.7835 101.417 70.3269 102.262C70.8704 103.107 71.1421 104.111 71.1421 105.274C71.1421 106.421 70.8704 107.425 70.3269 108.285C69.7835 109.131 68.9985 109.78 67.9719 110.233C66.9605 110.686 65.7679 110.912 64.3941 110.912H60.8163V115.486H57.8726V99.6353H64.3941ZM64.2583 108.421C65.5414 108.421 66.5151 108.15 67.1794 107.606C67.8436 107.063 68.1757 106.285 68.1757 105.274C68.1757 104.262 67.8436 103.485 67.1794 102.941C66.5151 102.398 65.5414 102.126 64.2583 102.126H60.8163V108.421H64.2583Z" fill="#4F4E4C"/>
<path d="M47.0271 115.486L42.7247 109.463L38.4676 115.486H35.1162L41.0037 107.402L35.4332 99.6353H38.7619L42.8153 105.274L46.8233 99.6353H50.0162L44.4683 107.289L50.4238 115.486H47.0271Z" fill="#4F4E4C"/>
<path d="M28.2755 113.018V115.486H16.3872V99.6353H27.9585V102.103H19.331V106.225H26.9848V108.648H19.331V113.018H28.2755Z" fill="#4F4E4C"/>
<path d="M130.453 88.3133V63.6104H141.115C142.949 63.6104 144.553 63.9441 145.928 64.6115C147.303 65.2789 148.373 66.2399 149.137 67.4943C149.901 68.7488 150.283 70.2525 150.283 72.0055C150.283 73.7746 149.888 75.2662 149.1 76.4805C148.32 77.6947 147.223 78.6114 145.808 79.2306C144.4 79.8498 142.756 80.1594 140.874 80.1594H134.505V74.9486H139.523C140.311 74.9486 140.983 74.8521 141.538 74.6591C142.1 74.4581 142.531 74.1405 142.828 73.7062C143.134 73.272 143.287 72.7051 143.287 72.0055C143.287 71.2979 143.134 70.7229 142.828 70.2806C142.531 69.8303 142.1 69.5006 141.538 69.2915C140.983 69.0744 140.311 68.9659 139.523 68.9659H137.159V88.3133H130.453ZM144.927 76.975L151.103 88.3133H143.817L137.786 76.975H144.927Z" fill="#4F4E4C"/>
<path d="M106.778 88.3133H99.541L107.695 63.6104H116.862L125.016 88.3133H117.779L112.375 70.4133H112.182L106.778 88.3133ZM105.427 78.5672H119.033V83.585H105.427V78.5672Z" fill="#4F4E4C"/>
<path d="M72.8398 63.6104H80.3183L85.1431 73.6459H85.3361L90.1608 63.6104H97.6393L88.5687 80.5454V88.3133H81.9105V80.5454L72.8398 63.6104Z" fill="#4F4E4C"/>
<path d="M55.8696 88.3133V63.6104H62.5761V82.9095H72.5634V88.3133H55.8696Z" fill="#4F4E4C"/>
<path d="M49.7106 75.9617C49.7106 78.7118 49.1758 81.0317 48.1063 82.9214C47.0368 84.8031 45.5934 86.2304 43.7761 87.2034C41.9587 88.1684 39.9323 88.6509 37.6968 88.6509C35.4453 88.6509 33.4108 88.1644 31.5935 87.1914C29.7842 86.2103 28.3448 84.779 27.2753 82.8973C26.2138 81.0076 25.6831 78.6957 25.6831 75.9617C25.6831 73.2115 26.2138 70.8956 27.2753 69.014C28.3448 67.1243 29.7842 65.6969 31.5935 64.732C33.4108 63.759 35.4453 63.2725 37.6968 63.2725C39.9323 63.2725 41.9587 63.759 43.7761 64.732C45.5934 65.6969 47.0368 67.1243 48.1063 69.014C49.1758 70.8956 49.7106 73.2115 49.7106 75.9617ZM42.8111 75.9617C42.8111 74.4821 42.6141 73.2357 42.2201 72.2224C41.8341 71.2012 41.2591 70.4292 40.4952 69.9065C39.7393 69.3758 38.8065 69.1105 37.6968 69.1105C36.5871 69.1105 35.6503 69.3758 34.8864 69.9065C34.1305 70.4292 33.5556 71.2012 33.1615 72.2224C32.7755 73.2357 32.5826 74.4821 32.5826 75.9617C32.5826 77.4413 32.7755 78.6917 33.1615 79.7129C33.5556 80.7261 34.1305 81.4981 34.8864 82.0288C35.6503 82.5515 36.5871 82.8129 37.6968 82.8129C38.8065 82.8129 39.7393 82.5515 40.4952 82.0288C41.2591 81.4981 41.8341 80.7261 42.2201 79.7129C42.6141 78.6917 42.8111 77.4413 42.8111 75.9617Z" fill="#4F4E4C"/>
<path d="M0 88.3133V63.6104H6.70646V73.5977H7.04419L14.4744 63.6104H22.2905L13.9436 74.6109L22.4835 88.3133H14.4744L8.92586 79.0497L6.70646 81.9446V88.3133H0Z" fill="#4F4E4C"/>
<path d="M143.933 10.6557C141.725 9.66616 139.277 8.65583 136.538 7.61426L136.611 31.0287C136.611 33.8097 137.351 36.5595 138.798 38.9446C141.59 43.5484 147.933 50.2457 162.317 56.0889C161.827 43.9546 157.797 27.727 143.933 10.6557Z" fill="url(#paint0_linear_24_1629)"/>
<path d="M163.015 50.0371C163.244 43.8606 163.442 34.6531 162.911 30.0598C162.098 23.0188 158.776 17.7485 146.36 11.7803C157.161 25.7373 161.588 39.0798 163.015 50.0371Z" fill="url(#paint1_linear_24_1629)"/>
<path d="M193.054 34.7049C199.137 31.1115 204.98 29.3825 208.969 28.5492L208.875 1.58301C204.501 3.37451 195.616 7.68662 187.315 15.9567C177.055 26.1849 165.702 44.6832 168.64 75.1907C171.462 52.0262 183.399 40.3919 193.043 34.6945L193.054 34.7049Z" fill="url(#paint2_linear_24_1629)"/>
<path d="M186.512 15.0715C195.219 6.40565 204.573 1.99981 208.885 0.291638V0C208.885 0 178.534 11.7905 170.263 29.0493C168.982 31.7262 168.347 34.6634 168.295 37.6319L168.045 51.9847C170.899 34.403 178.992 22.5604 186.522 15.0715H186.512Z" fill="url(#paint3_linear_24_1629)"/>
<path d="M193.626 35.7675C184.127 41.392 172.336 52.9638 169.764 76.17C175.357 74.3889 190.637 68.5978 201.469 55.5573C206.385 49.6516 209.02 42.1836 209 34.5176L208.979 29.7993C205.062 30.6326 199.417 32.3408 193.626 35.7675Z" fill="url(#paint4_linear_24_1629)"/>
<defs>
<linearGradient id="paint0_linear_24_1629" x1="155.953" y1="49.6103" x2="134.476" y2="10.8848" gradientUnits="userSpaceOnUse">
<stop stop-color="#1D6771"/>
<stop offset="0.53" stop-color="#199288"/>
<stop offset="1" stop-color="#32A299"/>
</linearGradient>
<linearGradient id="paint1_linear_24_1629" x1="164.671" y1="41.5587" x2="148.423" y2="12.2594" gradientUnits="userSpaceOnUse">
<stop stop-color="#1D6771"/>
<stop offset="0.53" stop-color="#199288"/>
<stop offset="1" stop-color="#32A299"/>
</linearGradient>
<linearGradient id="paint2_linear_24_1629" x1="188.586" y1="75.2011" x2="188.586" y2="1.59342" gradientUnits="userSpaceOnUse">
<stop stop-color="#1D6771"/>
<stop offset="0.53" stop-color="#199288"/>
<stop offset="1" stop-color="#32A299"/>
</linearGradient>
<linearGradient id="paint3_linear_24_1629" x1="188.46" y1="51.9847" x2="188.46" y2="0" gradientUnits="userSpaceOnUse">
<stop stop-color="#1D6771"/>
<stop offset="0.53" stop-color="#199288"/>
<stop offset="1" stop-color="#32A299"/>
</linearGradient>
<linearGradient id="paint4_linear_24_1629" x1="189.376" y1="76.17" x2="189.376" y2="29.8097" gradientUnits="userSpaceOnUse">
<stop stop-color="#1D6771"/>
<stop offset="0.53" stop-color="#199288"/>
<stop offset="1" stop-color="#32A299"/>
</linearGradient>
</defs>
</svg>
