<svg width="22" height="22" viewBox="0 0 22 22" fill="none" xmlns="http://www.w3.org/2000/svg">
<path fill-rule="evenodd" clip-rule="evenodd" d="M4.18649 4.83726C4.18834 4.83726 4.142 4.88546 4.08361 4.94292C3.85933 5.16072 3.395 5.61393 3.39032 6.56207C3.38295 7.88834 4.25507 10.3509 8.45443 14.5494C12.6343 18.7274 15.0931 19.6098 16.4222 19.6098H16.4416C17.3898 19.6051 17.842 19.1399 18.0608 18.9165C18.1275 18.8479 18.1813 18.7979 18.2193 18.7664C19.1423 17.8377 19.615 17.1463 19.6104 16.7033C19.6039 16.251 19.0413 15.7162 18.2637 14.9766C18.0163 14.7412 17.7475 14.4854 17.4639 14.2018C16.7289 13.4687 16.3647 13.5938 15.564 13.8756C14.4564 14.2639 12.9365 14.7922 10.575 12.4297C8.20975 10.0664 8.73896 8.54823 9.12636 7.44069C9.40626 6.63992 9.53416 6.27475 8.79827 5.53886C8.51004 5.25155 8.25146 4.97907 8.01327 4.72883C7.27831 3.95586 6.74818 3.39699 6.29868 3.3905H6.29126C5.84732 3.3905 5.15778 3.86503 4.18186 4.84097C4.18464 4.83819 4.18649 4.83726 4.18649 4.83726ZM16.4231 21C14.1135 21 11.1023 19.1612 7.47201 15.5327C3.82782 11.8894 1.98625 8.86891 2.00008 6.55465C2.0085 5.02541 2.81018 4.24225 3.1114 3.94845C3.12715 3.92898 3.18091 3.87616 3.19944 3.85762C4.52848 2.52764 5.4247 1.99009 6.31629 2.00014C7.35153 2.01418 8.08834 2.789 9.02071 3.7705C9.25148 4.01332 9.50172 4.27747 9.78069 4.55551C11.1338 5.90866 10.7483 7.0125 10.4387 7.89853C10.1014 8.8652 9.80942 9.69934 11.5574 11.4473C13.3072 13.1953 14.1413 12.9033 15.1043 12.5632C15.9912 12.2536 17.0923 11.8662 18.4472 13.2194C18.7216 13.4937 18.982 13.7412 19.2221 13.9701C20.2082 14.9071 20.9867 15.6476 20.9998 16.6857C21.0108 17.5708 20.4732 18.4726 19.1461 19.8007L18.5585 19.4022L19.0552 19.8878C18.7614 20.189 17.9792 20.9917 16.4491 21H16.4231Z" fill="#029080"/>
</svg>
